<svg width="137" height="47" viewBox="0 0 137 47" fill="none" xmlns="http://www.w3.org/2000/svg">
<path d="M129.57 12.2301C125.12 9.48006 123.33 6.36 122.77 2.92C122.63 2.10149 122.205 1.35897 121.57 0.824355C120.935 0.289739 120.13 -0.00233727 119.3 1.40871e-05H16.89C16.0609 -0.00197349 15.2579 0.29045 14.6243 0.825209C13.9906 1.35997 13.5674 2.10231 13.43 2.92C12.86 6.36 11.07 9.48006 6.62 12.2301C1.96 15.1101 0 17.23 0 23.28C0 29.33 2 31.46 6.62 34.34C11.07 37.09 12.86 40.2 13.43 43.65C13.5695 44.4659 13.9937 45.2059 14.6271 45.7387C15.2606 46.2714 16.0623 46.5624 16.89 46.56H119.3C120.129 46.5628 120.932 46.2721 121.567 45.7395C122.202 45.2069 122.628 44.4667 122.77 43.65C123.33 40.2 125.12 37.09 129.57 34.34C134.23 31.46 136.2 29.39 136.2 23.28C136.2 17.17 134.2 15.1101 129.57 12.2301Z" fill="#E2542A"/>
<path d="M112.78 4.0498H22.41C21.1139 4.05245 19.8717 4.5685 18.9552 5.48499C18.0387 6.40147 17.5227 7.64372 17.52 8.93982V37.6298C17.5227 38.9259 18.0387 40.1682 18.9552 41.0847C19.8717 42.0011 21.1139 42.5172 22.41 42.5198H112.78C114.076 42.5172 115.318 42.0011 116.235 41.0847C117.151 40.1682 117.667 38.9259 117.67 37.6298V8.94983C117.671 8.30682 117.546 7.66988 117.301 7.07544C117.055 6.481 116.695 5.94073 116.241 5.4856C115.787 5.03046 115.248 4.66941 114.654 4.42303C114.06 4.17666 113.423 4.0498 112.78 4.0498Z" fill="white"/>
<path d="M112.78 41.2099H22.4099C21.4604 41.2099 20.5497 40.8327 19.8784 40.1613C19.207 39.4899 18.8298 38.5794 18.8298 37.6299V8.94989C18.8298 7.99949 19.2067 7.08789 19.8778 6.41492C20.5489 5.74195 21.4595 5.36251 22.4099 5.35986H112.78C113.732 5.35986 114.645 5.73812 115.318 6.41138C115.992 7.08463 116.37 7.99776 116.37 8.94989V37.6399C116.369 38.11 116.275 38.5753 116.094 39.0092C115.912 39.443 115.648 39.8369 115.314 40.1684C114.981 40.4999 114.585 40.7625 114.151 40.9412C113.716 41.1199 113.25 41.2112 112.78 41.2099Z" fill="#F6AB00"/>
<path d="M124.87 27.1499C127.007 27.1499 128.74 25.4172 128.74 23.2799C128.74 21.1426 127.007 19.4099 124.87 19.4099C122.733 19.4099 121 21.1426 121 23.2799C121 25.4172 122.733 27.1499 124.87 27.1499Z" fill="#003F78"/>
<path d="M9.87 27.1499C12.0073 27.1499 13.74 25.4172 13.74 23.2799C13.74 21.1426 12.0073 19.4099 9.87 19.4099C7.73265 19.4099 6 21.1426 6 23.2799C6 25.4172 7.73265 27.1499 9.87 27.1499Z" fill="#003F78"/>
<path d="M112.83 7H22.1699C21.5238 7 21 7.81828 21 8.8277V37.1722C21 38.1817 21.5238 39 22.1699 39H112.83C113.476 39 114 38.1817 114 37.1722V8.8277C114 7.81828 113.476 7 112.83 7Z" fill="white"/>
<path d="M37.344 32.4079C36.708 31.6519 36.126 31.0639 35.598 30.6439C37.158 30.0319 38.328 29.2699 39.108 28.3579H36.696V26.0719H37.29L37.056 16.7839L38.226 16.9819C38.682 16.5859 39.06 16.2079 39.36 15.8479L40.44 16.7839V15.7039H42.222V17.2159H43.68V19.1599H42.222V20.2399H43.77V26.0719H44.814C44.838 25.5439 44.856 25.1359 44.868 24.8479H44.112V22.9039H44.94L44.958 21.7519H44.112V19.8079H44.994V18.7279H44.112V16.7839H47.136C47.136 20.2279 47.07 23.3239 46.938 26.0719H47.64V28.3579H44.778C46.122 29.5939 47.076 30.5419 47.64 31.2019L45.444 32.3899C45 31.7899 44.028 30.7399 42.528 29.2399L44.274 28.3579H39.594L41.52 29.0059C41.04 29.6659 40.404 30.3079 39.612 30.9319C38.88 31.5199 38.124 32.0119 37.344 32.4079ZM30.936 30.0499V18.8719H32.484V26.5039H32.808V15.6319H34.644V26.5039H35.04V18.8719H36.516V29.3299H35.04V28.4479H32.484V30.0499H30.936ZM39.36 26.0719H40.368V22.7599H41.79V26.0719H42.24V22.1839H40.44V17.7379C39.936 18.0739 39.51 18.3559 39.162 18.5839L39.198 19.8079H40.008V21.7519H39.252L39.27 22.9759H40.008V24.9199H39.324L39.36 26.0719ZM57.738 32.4079C57.69 32.0359 57.576 31.5919 57.396 31.0759C57.228 30.5599 57.048 30.1279 56.856 29.7799C57.324 29.7919 57.894 29.7979 58.566 29.7979C58.782 29.7979 58.89 29.7019 58.89 29.5099V20.7979H57.162C56.634 21.7939 56.076 22.6519 55.488 23.3719C54.84 22.7239 54.138 22.1479 53.382 21.6439C54.054 20.9359 54.672 20.0059 55.236 18.8539C55.776 17.7619 56.202 16.5919 56.514 15.3439L59.088 15.9379C58.824 16.8499 58.548 17.6659 58.26 18.3859H63.876L64.272 18.3139L66.126 18.6379C65.934 20.1259 65.676 21.6019 65.352 23.0659L63.12 22.6699C63.216 21.9739 63.294 21.3499 63.354 20.7979H61.482V29.5459C61.482 30.1819 61.422 30.6679 61.302 31.0039C61.158 31.3879 60.912 31.6819 60.564 31.8859C59.964 32.2339 59.022 32.4079 57.738 32.4079ZM50.88 32.3719V23.6239C50.7 23.8519 50.424 24.1759 50.052 24.5959L49.998 24.6499C49.878 24.3019 49.674 23.8399 49.386 23.2639C49.086 22.6639 48.834 22.2079 48.63 21.8959C49.41 21.1159 50.148 20.1439 50.844 18.9799C51.54 17.8039 52.104 16.5979 52.536 15.3619L55.002 16.1359C54.534 17.3719 53.988 18.5779 53.364 19.7539V32.3719H50.88ZM56.082 30.0679C55.518 29.5879 54.78 29.1199 53.868 28.6639C54.324 28.0879 54.738 27.3259 55.11 26.3779C55.446 25.4899 55.71 24.5479 55.902 23.5519L58.44 24.0739C58.2 25.2019 57.864 26.3059 57.432 27.3859C57.012 28.4539 56.562 29.3479 56.082 30.0679ZM63.39 30.0139C63.318 29.2219 63.126 28.2739 62.814 27.1699C62.514 26.0539 62.16 25.0399 61.752 24.1279L64.092 23.3359C64.524 24.2239 64.908 25.2199 65.244 26.3239C65.568 27.3679 65.79 28.3039 65.91 29.1319L63.39 30.0139ZM70.23 32.3899V26.1439C69.702 27.5359 69.138 28.6339 68.538 29.4379C68.334 28.7899 67.932 27.9619 67.332 26.9539C67.872 26.2939 68.376 25.4419 68.844 24.3979C69.276 23.4379 69.63 22.4359 69.906 21.3919H67.818V18.9259H70.23V15.2899H72.732V18.9259H74.802V21.3919H72.732V22.1659C73.344 22.8379 74.16 23.8399 75.18 25.1719L73.722 27.2779C73.458 26.6899 73.128 26.0539 72.732 25.3699V32.3899H70.23ZM75.36 32.2279V16.2079H84.036V32.0839H81.408V31.2019H77.862V32.2279H75.36ZM77.862 28.8439H81.408V27.0079H77.862V28.8439ZM77.862 24.6499H81.408V22.8139H77.862V24.6499ZM77.862 20.4559H81.408V18.6739H77.862V20.4559ZM102.468 32.0299C99.648 32.1859 96.912 32.2099 94.26 32.1019C93.144 32.0539 92.232 31.8919 91.524 31.6159C90.744 31.3159 90.078 30.8299 89.526 30.1579C88.794 30.8419 87.996 31.5379 87.132 32.2459L85.926 29.6539C86.802 29.1499 87.528 28.6819 88.104 28.2499V25.7659H86.232V23.3719H90.606V28.0519C90.858 28.4599 91.182 28.7839 91.578 29.0239V22.5619H95.628V22.0039H92.244V15.7759H101.55V22.0039H97.968V22.5619H102.522V27.7459C102.522 28.2379 102.462 28.6099 102.342 28.8619C102.222 29.1019 102 29.2939 101.676 29.4379C101.232 29.6179 100.38 29.7079 99.12 29.7079C99.024 29.2159 98.814 28.6339 98.49 27.9619C98.802 27.9859 99.246 27.9979 99.822 27.9979C100.002 27.9859 100.092 27.9019 100.092 27.7459V27.4579L98.634 27.8179C98.622 27.6739 98.604 27.5119 98.58 27.3319C97.728 27.4399 96.516 27.5899 94.944 27.7819C94.704 27.8059 94.524 27.8239 94.404 27.8359L94.17 25.8199C94.206 25.8199 94.26 25.8199 94.332 25.8199C94.884 25.7959 95.316 25.7719 95.628 25.7479V24.5959H93.936V29.2939H92.082C92.658 29.5339 93.39 29.6719 94.278 29.7079C95.43 29.7679 96.882 29.7799 98.634 29.7439C100.47 29.7079 102.012 29.6359 103.26 29.5279C103.104 29.8399 102.948 30.2419 102.792 30.7339C102.624 31.2499 102.516 31.6819 102.468 32.0299ZM100.092 26.5759V24.5959H97.806V25.6399L98.22 25.6219C98.196 25.5499 98.16 25.4419 98.112 25.2979C98.1 25.2619 98.094 25.2319 98.094 25.2079L99.606 24.8839C99.81 25.4719 99.972 26.0359 100.092 26.5759ZM88.986 22.7959C88.722 22.4839 88.32 22.1119 87.78 21.6799C87.276 21.2719 86.766 20.9059 86.25 20.5819L87.942 18.9799C89.25 19.6999 90.198 20.3839 90.786 21.0319L88.986 22.7959ZM94.548 20.2579H95.628V19.6999H94.548V20.2579ZM97.968 20.2579H99.12V19.6999H97.968V20.2579ZM89.544 19.2319C89.028 18.5479 88.152 17.7799 86.916 16.9279L88.644 15.3799C89.904 16.1359 90.822 16.8499 91.398 17.5219L89.544 19.2319ZM94.548 18.0799H95.628V17.5219H94.548V18.0799ZM97.968 18.0799H99.12V17.5219H97.968V18.0799Z" fill="#3E3A39"/>
</svg>
