<svg width="148" height="47" viewBox="0 0 148 47" fill="none" xmlns="http://www.w3.org/2000/svg">
<path d="M140.57 12.2301C136.12 9.48006 134.33 6.36 133.77 2.92C133.63 2.10149 133.205 1.35897 132.57 0.824355C131.935 0.289739 131.13 -0.00233727 130.3 1.40871e-05H16.89C16.0609 -0.00197349 15.258 0.29045 14.6243 0.825209C13.9906 1.35997 13.5674 2.10231 13.43 2.92C12.86 6.36 11.07 9.48006 6.62003 12.2301C1.96003 15.1101 0 17.23 0 23.28C0 29.33 2.00003 31.46 6.62003 34.34C11.07 37.09 12.86 40.2 13.43 43.65C13.5695 44.4659 13.9937 45.2059 14.6271 45.7387C15.2606 46.2714 16.0623 46.5624 16.89 46.56H130.3C131.129 46.5628 131.932 46.2721 132.567 45.7395C133.202 45.2069 133.628 44.4667 133.77 43.65C134.33 40.2 136.12 37.09 140.57 34.34C145.23 31.46 147.2 29.39 147.2 23.28C147.2 17.17 145.2 15.1101 140.57 12.2301Z" fill="#E2542A"/>
<path d="M122.743 4H27.2568C26.3936 4.00268 25.5662 4.52585 24.9558 5.45495C24.3454 6.38406 24.0018 7.64343 24 8.95738V38.0426C24.0018 39.3566 24.3454 40.6159 24.9558 41.5451C25.5662 42.4742 26.3936 42.9973 27.2568 43H122.743C123.606 42.9973 124.434 42.4742 125.044 41.5451C125.655 40.6159 125.998 39.3566 126 38.0426V8.96753C126.001 8.31566 125.917 7.66994 125.754 7.06732C125.591 6.46469 125.351 5.91698 125.048 5.45557C124.746 4.99416 124.387 4.62814 123.991 4.37837C123.595 4.12861 123.171 4 122.743 4Z" fill="white"/>
<path d="M121.663 40H28.3305C27.7124 40 27.1197 39.6422 26.6826 39.0055C26.2455 38.3688 26 37.5052 26 36.6047V9.40476C26 8.50341 26.2453 7.63885 26.6822 7.00061C27.1191 6.36237 27.7118 6.00251 28.3305 6H121.663C121.97 6 122.274 6.08811 122.557 6.25921C122.841 6.43031 123.099 6.68109 123.316 6.99725C123.533 7.31341 123.705 7.68874 123.822 8.10182C123.94 8.5149 124 8.95765 124 9.40476V36.6142C123.999 37.0601 123.938 37.5014 123.82 37.9128C123.702 38.3243 123.53 38.6978 123.313 39.0122C123.096 39.3266 122.838 39.5757 122.555 39.7452C122.272 39.9146 121.969 40.0012 121.663 40Z" fill="#F6AB00"/>
<path d="M137.87 27.1499C140.007 27.1499 141.74 25.4172 141.74 23.2799C141.74 21.1426 140.007 19.4099 137.87 19.4099C135.733 19.4099 134 21.1426 134 23.2799C134 25.4172 135.733 27.1499 137.87 27.1499Z" fill="#003F78"/>
<path d="M9.87003 27.1499C12.0074 27.1499 13.74 25.4172 13.74 23.2799C13.74 21.1426 12.0074 19.4099 9.87003 19.4099C7.73268 19.4099 6 21.1426 6 23.2799C6 25.4172 7.73268 27.1499 9.87003 27.1499Z" fill="#003F78"/>
<path d="M120.818 8H29.1825C28.5294 8 28 8.76713 28 9.71347V36.2865C28 37.2328 28.5294 38 29.1825 38H120.818C121.471 38 122 37.2328 122 36.2865V9.71347C122 8.76713 121.471 8 120.818 8Z" fill="white"/>
<path d="M40.15 32.3719V30.1039C39.838 30.8599 39.472 31.5079 39.052 32.0479C38.872 31.8199 38.59 31.5319 38.206 31.1839C37.834 30.8479 37.54 30.6139 37.324 30.4819C38.02 29.5579 38.506 28.3759 38.782 26.9359C38.962 25.9519 39.052 24.7759 39.052 23.4079V21.4999L38.746 21.6979C38.59 21.4099 38.35 21.0739 38.026 20.6899C37.714 20.2939 37.432 19.9999 37.18 19.8079C39.112 18.7279 40.594 17.3119 41.626 15.5599H43.948C45.592 16.8199 46.792 17.8459 47.548 18.6379V17.5039H50.014V27.7999H47.548V18.7459L45.946 20.6179C45.922 20.5939 45.886 20.5519 45.838 20.4919C45.55 20.1559 45.316 19.8919 45.136 19.6999V20.5279H41.068V19.9339C40.6 20.3419 40.174 20.6899 39.79 20.9779H46.702V26.9539H40.996C40.984 27.0619 40.954 27.2239 40.906 27.4399H47.008V32.3359H44.74V31.9039H42.328V32.3719H40.15ZM49.438 32.3719C49.39 32.0119 49.282 31.5679 49.114 31.0399C48.958 30.5119 48.79 30.0619 48.61 29.6899C49.27 29.7259 50.068 29.7439 51.004 29.7439C51.292 29.7439 51.436 29.6059 51.436 29.3299V15.6679H53.974V29.3479C53.974 30.0559 53.902 30.5959 53.758 30.9679C53.602 31.3519 53.332 31.6459 52.948 31.8499C52.312 32.1979 51.142 32.3719 49.438 32.3719ZM42.328 30.0679H44.74V29.2759H42.328V30.0679ZM41.194 25.1899H44.38V24.7039H41.23L41.194 25.1899ZM41.266 23.2099H44.38V22.7599H41.266V23.2099ZM42.202 18.8179H44.272C43.888 18.4219 43.504 18.0739 43.12 17.7739C42.88 18.0859 42.574 18.4339 42.202 18.8179ZM65.566 32.3899V20.6719H65.224C64.468 22.0279 63.706 23.1439 62.938 24.0199C62.734 23.7799 62.422 23.4679 62.002 23.0839C61.582 22.6879 61.234 22.3879 60.958 22.1839C61.726 21.4039 62.452 20.4019 63.136 19.1779C63.784 17.9899 64.312 16.7419 64.72 15.4339L67.24 16.0999C67 16.8199 66.73 17.5159 66.43 18.1879H73.144V20.6719H68.266V22.1659H72.658V24.5419H68.266V26.1619H72.892V28.5919H68.266V32.3899H65.566ZM57.952 32.3719V23.8759C57.784 24.0799 57.532 24.3619 57.196 24.7219C57.064 24.3739 56.86 23.9059 56.584 23.3179C56.272 22.6819 56.008 22.2079 55.792 21.8959C56.572 21.1159 57.31 20.1439 58.006 18.9799C58.714 17.8039 59.284 16.5979 59.716 15.3619L62.254 16.1719C61.786 17.4199 61.234 18.6379 60.598 19.8259V32.3719H57.952ZM76.258 31.8859V29.7619H81.712V29.0239H78.796V27.9439C77.908 28.6879 76.984 29.2579 76.024 29.6539C75.568 28.9099 75.016 28.2439 74.368 27.6559C75.604 27.2239 76.702 26.6119 77.662 25.8199H74.53V23.6959H77.896V18.5299H75.556V16.4419H77.896V15.2899H80.524V16.4419H85.69V15.3079H88.372V16.4419H90.712V18.5299H88.372V23.6959H91.63V25.8199H88.696C89.632 26.5399 90.67 27.1039 91.81 27.5119C91.534 27.7399 91.228 28.0579 90.892 28.4659C90.556 28.8619 90.292 29.2159 90.1 29.5279C89.128 29.0839 88.228 28.4899 87.4 27.7459V29.0239H84.376V29.7619H90.118V31.8859H76.258ZM79.822 26.9899H81.712V26.0719H84.376V26.9899H86.608C86.236 26.6059 85.9 26.2159 85.6 25.8199H80.812C80.524 26.2039 80.194 26.5939 79.822 26.9899ZM80.524 23.6959H85.69V23.1739H80.524V23.6959ZM80.524 21.3919H85.69V20.8519H80.524V21.3919ZM80.524 19.0699H85.69V18.5299H80.524V19.0699ZM103.528 32.0659C102.184 32.0659 101.278 31.8199 100.81 31.3279C100.342 30.8479 100.108 29.9119 100.108 28.5199V24.4159L99.388 24.7399L98.416 22.4359L100.108 21.7159V17.0719H102.592V20.6539L103.564 20.2399V15.2899H106.012V19.1779L106.912 18.7999H106.894L107.308 18.5299L107.776 18.2239L109.594 18.8719L109.504 19.2859C109.504 22.5139 109.474 24.5479 109.414 25.3879C109.378 26.2159 109.078 26.7739 108.514 27.0619C108.118 27.2779 107.458 27.3859 106.534 27.3859C106.426 26.4739 106.252 25.7659 106.012 25.2619V28.0879H103.564V22.9039L102.592 23.3359V28.5199C102.592 29.0719 102.658 29.4139 102.79 29.5459C102.922 29.6779 103.252 29.7439 103.78 29.7439H106.804C107.272 29.7439 107.578 29.6179 107.722 29.3659C107.878 29.1019 107.998 28.5319 108.082 27.6559C108.358 27.8479 108.718 28.0339 109.162 28.2139C109.606 28.3939 110.002 28.5199 110.35 28.5919C110.194 29.8999 109.888 30.8059 109.432 31.3099C108.952 31.8139 108.16 32.0659 107.056 32.0659H103.528ZM93.916 30.0319L92.872 27.4039C93.16 27.3079 93.652 27.1279 94.348 26.8639C94.696 26.7319 94.96 26.6299 95.14 26.5579V21.8419H93.16V19.3759H95.14V15.5599H97.57V19.3759H99.244V21.8419H97.57V25.5499L99.028 24.9379L99.622 27.2419C97.858 28.1539 95.956 29.0839 93.916 30.0319ZM106.678 25.2439C106.858 25.2439 106.96 25.1359 106.984 24.9199C107.008 24.7759 107.02 23.5999 107.02 21.3919L106.012 21.8419V25.2259C106.168 25.2379 106.39 25.2439 106.678 25.2439Z" fill="#3E3A39"/>
</svg>
