<svg width="54" height="16" viewBox="0 0 54 16" fill="none" xmlns="http://www.w3.org/2000/svg">
<path d="M0.82 15.5V0.7H3.78V13.02H9.78V15.5H0.82ZM17.4813 15.78C15.4946 15.78 13.9013 15.0867 12.7013 13.7C11.4746 12.3 10.8613 10.4133 10.8613 8.04C10.8613 5.66667 11.4746 3.79333 12.7013 2.42C13.9013 1.08667 15.4946 0.42 17.4813 0.42C19.4679 0.42 21.0613 1.08667 22.2613 2.42C23.4879 3.80667 24.1013 5.68667 24.1013 8.06C24.1013 10.42 23.4879 12.3 22.2613 13.7C21.0613 15.0867 19.4679 15.78 17.4813 15.78ZM14.8613 11.82C15.5146 12.7533 16.3879 13.22 17.4813 13.22C18.5746 13.22 19.4479 12.7533 20.1013 11.82C20.7546 10.8867 21.0812 9.62667 21.0812 8.04C21.0812 6.45333 20.7546 5.21333 20.1013 4.32C19.4613 3.41333 18.5879 2.96 17.4813 2.96C16.3746 2.96 15.4946 3.41333 14.8413 4.32C14.2013 5.21333 13.8813 6.45333 13.8813 8.04C13.8813 9.62667 14.2079 10.8867 14.8613 11.82ZM33.3519 15.78C31.2585 15.78 29.5719 15.1267 28.2919 13.82C26.9319 12.4467 26.2519 10.56 26.2519 8.16C26.2519 5.78667 26.9452 3.88667 28.3319 2.46C29.6385 1.1 31.3119 0.42 33.3519 0.42C35.1652 0.42 36.6919 1.05333 37.9319 2.32L36.3519 4.2C35.4985 3.37333 34.5319 2.96 33.4519 2.96C32.1985 2.96 31.1919 3.41333 30.4319 4.32C29.6585 5.24 29.2719 6.48667 29.2719 8.06C29.2719 9.7 29.6385 10.96 30.3719 11.84C31.1319 12.76 32.2252 13.22 33.6519 13.22C34.4519 13.22 35.0719 13.0333 35.5119 12.66V9.74H32.8919V7.32H38.1519V14C37.6185 14.52 36.9519 14.94 36.1519 15.26C35.2719 15.6067 34.3385 15.78 33.3519 15.78ZM47.2078 15.78C45.2211 15.78 43.6278 15.0867 42.4278 13.7C41.2011 12.3 40.5878 10.4133 40.5878 8.04C40.5878 5.66667 41.2011 3.79333 42.4278 2.42C43.6278 1.08667 45.2211 0.42 47.2078 0.42C49.1945 0.42 50.7878 1.08667 51.9878 2.42C53.2145 3.80667 53.8278 5.68667 53.8278 8.06C53.8278 10.42 53.2145 12.3 51.9878 13.7C50.7878 15.0867 49.1945 15.78 47.2078 15.78ZM44.5878 11.82C45.2411 12.7533 46.1145 13.22 47.2078 13.22C48.3011 13.22 49.1745 12.7533 49.8278 11.82C50.4811 10.8867 50.8078 9.62667 50.8078 8.04C50.8078 6.45333 50.4811 5.21333 49.8278 4.32C49.1878 3.41333 48.3145 2.96 47.2078 2.96C46.1011 2.96 45.2211 3.41333 44.5678 4.32C43.9278 5.21333 43.6078 6.45333 43.6078 8.04C43.6078 9.62667 43.9345 10.8867 44.5878 11.82Z" fill="#003F78"/>
</svg>
