<svg width="158" height="47" viewBox="0 0 158 47" fill="none" xmlns="http://www.w3.org/2000/svg">
<path d="M150.57 12.2301C146.12 9.48006 144.33 6.36 143.77 2.92C143.63 2.10149 143.205 1.35897 142.57 0.824355C141.935 0.289739 141.13 -0.00233727 140.3 1.40871e-05H16.8899C16.0607 -0.00197349 15.2579 0.29045 14.6243 0.825209C13.9906 1.35997 13.5673 2.10231 13.4299 2.92C12.8599 6.36 11.07 9.48006 6.62 12.2301C1.96 15.1101 0 17.23 0 23.28C0 29.33 2 31.46 6.62 34.34C11.07 37.09 12.8599 40.2 13.4299 43.65C13.5695 44.4659 13.9936 45.2059 14.6271 45.7387C15.2605 46.2714 16.0622 46.5624 16.8899 46.56H140.3C141.129 46.5628 141.932 46.2721 142.567 45.7395C143.202 45.2069 143.628 44.4667 143.77 43.65C144.33 40.2 146.12 37.09 150.57 34.34C155.23 31.46 157.2 29.39 157.2 23.28C157.2 17.17 155.2 15.1101 150.57 12.2301Z" fill="#E2542A"/>
<path d="M133.78 4.0498H22.4099C21.1138 4.05245 19.8716 4.5685 18.9551 5.48499C18.0386 6.40147 17.5225 7.64372 17.5199 8.93982V37.6298C17.5225 38.9259 18.0386 40.1682 18.9551 41.0847C19.8716 42.0011 21.1138 42.5172 22.4099 42.5198H133.78C135.076 42.5172 136.318 42.0011 137.235 41.0847C138.151 40.1682 138.667 38.9259 138.67 37.6298V8.94983C138.671 8.30682 138.546 7.66988 138.301 7.07544C138.055 6.481 137.695 5.94073 137.241 5.4856C136.787 5.03046 136.247 4.66941 135.654 4.42303C135.06 4.17666 134.423 4.0498 133.78 4.0498Z" fill="white"/>
<path d="M133.78 41.2099H22.4099C21.4604 41.2099 20.5499 40.8327 19.8785 40.1613C19.2072 39.4899 18.83 38.5794 18.83 37.6299V8.94989C18.83 7.99949 19.2068 7.08789 19.8779 6.41492C20.549 5.74195 21.4595 5.36251 22.4099 5.35986H133.78C134.732 5.35986 135.645 5.73812 136.318 6.41138C136.992 7.08463 137.37 7.99776 137.37 8.94989V37.6399C137.369 38.11 137.275 38.5753 137.094 39.0092C136.913 39.443 136.648 39.8369 136.314 40.1684C135.981 40.4999 135.586 40.7625 135.151 40.9412C134.716 41.1199 134.25 41.2112 133.78 41.2099Z" fill="#F6AB00"/>
<path d="M147.87 27.1499C150.007 27.1499 151.74 25.4172 151.74 23.2799C151.74 21.1426 150.007 19.4099 147.87 19.4099C145.733 19.4099 144 21.1426 144 23.2799C144 25.4172 145.733 27.1499 147.87 27.1499Z" fill="#003F78"/>
<path d="M9.87 27.1499C12.0073 27.1499 13.74 25.4172 13.74 23.2799C13.74 21.1426 12.0073 19.4099 9.87 19.4099C7.73265 19.4099 6 21.1426 6 23.2799C6 25.4172 7.73265 27.1499 9.87 27.1499Z" fill="#003F78"/>
<path d="M133.317 7H22.6825C21.7533 7 21 7.81828 21 8.8277V37.1722C21 38.1817 21.7533 39 22.6825 39H133.317C134.247 39 135 38.1817 135 37.1722V8.8277C135 7.81828 134.247 7 133.317 7Z" fill="white"/>
<path d="M45.688 32.4079C44.272 31.8319 42.55 31.2679 40.522 30.7159L41.386 30.0139H38.578L39.55 30.6979C38.818 31.0699 37.864 31.4119 36.688 31.7239C35.584 32.0119 34.486 32.2279 33.394 32.3719C32.914 31.7479 32.392 31.1839 31.828 30.6799C32.956 30.5599 34.156 30.3379 35.428 30.0139H34.186V23.8939H46.228V30.0139H44.77C44.818 30.0259 44.89 30.0439 44.986 30.0679C46.45 30.4879 47.434 30.7819 47.938 30.9499L45.688 32.4079ZM36.706 28.7179H43.564V28.3399H36.706V28.7179ZM36.706 27.1339H43.564V26.7559H36.706V27.1339ZM36.706 25.5499H43.564V25.1899H36.706V25.5499ZM32.674 23.8039L32.512 22.1299C33.352 22.1059 34.306 22.0699 35.374 22.0219V21.6259H33.466V20.4019H35.374V20.0239H33.214V19.1599H32.17V16.2079H38.686V15.2719H41.314V16.2079H47.812V19.1599H46.318V19.9879H44.518V20.3299H47.542V21.5719H44.518V22.2919H45.166V21.6439H47.038V23.5339H40.036V21.6439H41.818V22.2919H42.394V21.5719H39.586V20.3299H40.108C39.82 20.1259 39.55 19.9579 39.298 19.8259V20.0239H37.498V20.4019H39.226V21.6259H37.498V21.9499L39.496 21.8599L39.478 23.4259C37.726 23.5459 35.458 23.6719 32.674 23.8039ZM41.206 20.3299H42.394V19.9879H41.512C41.476 20.0239 41.422 20.0839 41.35 20.1679C41.29 20.2399 41.242 20.2939 41.206 20.3299ZM39.298 19.8079C39.898 19.3639 40.36 18.8299 40.684 18.2059H34.51V18.6199H39.298V19.8079ZM42.286 18.7459H45.364V18.2059H41.854L42.502 18.3139C42.43 18.4579 42.358 18.6019 42.286 18.7459ZM63.958 32.3179C63.562 32.3899 62.938 32.4139 62.086 32.3899C62.074 32.0419 62.008 31.6579 61.888 31.2379C61.78 30.8179 61.642 30.4579 61.474 30.1579C61.798 30.2059 62.17 30.2299 62.59 30.2299C62.806 30.2299 62.98 30.1639 63.112 30.0319C63.304 29.8039 63.466 29.0419 63.598 27.7459H57.262V29.5639H58.774V28.0879H61.168V31.5079H53.266V32.2279H50.908V28.0879H53.266V29.5639H54.868V27.7459H52.528V16.5859H56.542C56.662 15.9739 56.734 15.5239 56.758 15.2359L59.926 15.4159C59.782 15.7759 59.596 16.1659 59.368 16.5859H64.174V22.7959H55.12V23.3719H66.892V25.2619H55.12V25.8919H66.28C66.256 26.1919 66.232 26.4919 66.208 26.7919C66.1 28.2559 65.968 29.3599 65.812 30.1039C65.668 30.8479 65.482 31.3519 65.254 31.6159C64.93 31.9879 64.498 32.2219 63.958 32.3179ZM55.12 21.0499H61.546V20.4379H55.12V21.0499ZM55.12 18.8899H61.546V18.3499H55.12V18.8899ZM79.852 32.3719C79.756 31.6399 79.486 30.8239 79.042 29.9239C79.546 29.9479 80.212 29.9599 81.04 29.9599C81.184 29.9599 81.28 29.9419 81.328 29.9059C81.376 29.8699 81.4 29.7919 81.4 29.6719V26.3059H75.352V24.0379H81.4V22.7959H75.352V20.5099H79.168V19.3219H75.856V17.0719H79.168V15.2719H81.742V17.0719H85.18V19.3219H81.742V20.5099H85.576V22.7959H83.956V24.0379H85.486V26.3059H83.956V29.7259C83.956 30.3379 83.89 30.8059 83.758 31.1299C83.602 31.4899 83.332 31.7599 82.948 31.9399C82.348 32.2279 81.316 32.3719 79.852 32.3719ZM69.088 30.6079V16.3519H75.028V28.9339H71.5V30.6079H69.088ZM77.8 30.4639C77.488 29.6359 76.84 28.6459 75.856 27.4939L77.944 26.3059C79.012 27.4459 79.714 28.3999 80.05 29.1679L77.8 30.4639ZM71.5 26.6119H72.598V23.6599H71.5V26.6119ZM71.5 21.3919H72.598V18.6739H71.5V21.3919ZM88.51 32.4259C88.366 32.0659 88.138 31.6579 87.826 31.2019C87.514 30.7459 87.214 30.3859 86.926 30.1219C88.222 29.7379 89.218 29.2459 89.914 28.6459C90.526 28.1299 90.958 27.4699 91.21 26.6659C91.402 26.1019 91.54 25.2799 91.624 24.1999H87.448V21.7339H94.216V15.2899H96.88V21.7339H103.828V24.1999H99.22V29.0959C99.22 29.4319 99.25 29.6479 99.31 29.7439C99.382 29.8279 99.55 29.8699 99.814 29.8699H101.074C101.338 29.8699 101.506 29.7079 101.578 29.3839C101.662 29.0599 101.728 28.2979 101.776 27.0979C102.028 27.3019 102.406 27.5119 102.91 27.7279C103.354 27.9199 103.768 28.0639 104.152 28.1599C104.032 29.7799 103.768 30.8779 103.36 31.4539C102.964 32.0299 102.28 32.3179 101.308 32.3179H99.4C98.284 32.3179 97.528 32.0839 97.132 31.6159C96.76 31.1719 96.574 30.3379 96.574 29.1139V24.1999H94.432C94.312 25.6159 94.114 26.7499 93.838 27.6019C93.478 28.7179 92.908 29.6479 92.128 30.3919C91.252 31.2319 90.046 31.9099 88.51 32.4259ZM90.346 21.3379C90.106 20.1619 89.536 18.6799 88.636 16.8919L90.994 15.9919C91.99 17.7439 92.626 19.1839 92.902 20.3119L90.346 21.3379ZM100.534 21.2119L98.23 20.3479C99.058 18.9799 99.712 17.4979 100.192 15.9019L102.982 16.8379C101.998 18.8059 101.182 20.2639 100.534 21.2119ZM107.626 32.3899V26.6299C107.302 27.6259 106.924 28.4779 106.492 29.1859C106.3 28.5979 105.946 27.8539 105.43 26.9539C105.862 26.3059 106.264 25.4419 106.636 24.3619C106.984 23.3779 107.26 22.3579 107.464 21.3019H105.88V18.9259H107.626V15.2899H109.948V18.9259H111.046L110.92 18.8179L111.856 17.3959L112.072 17.5579C112.384 16.8139 112.642 16.0819 112.846 15.3619L114.772 16.0819C114.58 16.3939 114.31 16.8679 113.962 17.5039C113.662 18.0199 113.446 18.3919 113.314 18.6199C113.35 18.6439 113.398 18.6919 113.458 18.7639C113.518 18.8239 113.56 18.8719 113.584 18.9079C113.86 18.4159 114.124 17.8999 114.376 17.3599L115.564 17.9359C115.552 17.3599 115.546 16.4839 115.546 15.3079L117.814 15.3259C117.79 16.5739 117.784 17.5039 117.796 18.1159L118.264 17.3959L118.462 17.5579C118.81 16.7299 119.074 15.9979 119.254 15.3619L121.198 16.0639C121.042 16.3279 120.808 16.7239 120.496 17.2519C120.124 17.8879 119.854 18.3379 119.686 18.6019C119.734 18.6379 119.8 18.7039 119.884 18.7999C119.92 18.8359 119.95 18.8659 119.974 18.8899C120.346 18.2299 120.616 17.7199 120.784 17.3599L122.548 18.2059C122.5 18.2779 122.428 18.3859 122.332 18.5299C121.624 19.5739 121.084 20.3479 120.712 20.8519L122.116 20.3299C122.584 21.3619 122.866 22.2739 122.962 23.0659L121.432 23.6779C121.42 23.4859 121.384 23.2639 121.324 23.0119L120.424 23.1559C120.94 23.5399 121.312 23.8819 121.54 24.1819L121.234 24.4519H122.53V26.4499H120.298L121.864 27.0439C121.348 28.0639 120.688 28.9639 119.884 29.7439C120.16 30.0679 120.448 30.2299 120.748 30.2299C120.952 30.2299 121.096 30.1279 121.18 29.9239C121.276 29.6959 121.348 29.2639 121.396 28.6279C121.828 29.0959 122.38 29.4859 123.052 29.7979C122.872 30.8179 122.602 31.5139 122.242 31.8859C121.894 32.2219 121.336 32.3899 120.568 32.3899C119.632 32.3899 118.828 31.9699 118.156 31.1299C117.424 31.6219 116.596 32.0359 115.672 32.3719C115.348 31.8079 114.898 31.2499 114.322 30.6979C115.33 30.3739 116.272 29.9059 117.148 29.2939C116.824 28.4779 116.554 27.5299 116.338 26.4499H114.736L114.682 26.9359C115.558 27.5479 116.2 28.0759 116.608 28.5199L115.24 30.2659C115.036 29.9899 114.676 29.6299 114.16 29.1859C113.692 30.5299 112.888 31.5919 111.748 32.3719C111.592 32.0839 111.382 31.7779 111.118 31.4539C110.83 31.0939 110.56 30.8239 110.308 30.6439C111.028 30.1759 111.562 29.5519 111.91 28.7719C112.174 28.1719 112.36 27.3979 112.468 26.4499H111.424V25.8019L110.632 26.9719C110.452 26.4079 110.224 25.7959 109.948 25.1359V32.3899H107.626ZM118.894 27.6019C119.206 27.1819 119.446 26.7979 119.614 26.4499H118.588C118.66 26.7739 118.762 27.1579 118.894 27.6019ZM111.424 24.4519H116.014C115.99 24.2479 115.954 23.9299 115.906 23.4979L114.556 23.9839C114.556 23.8999 114.544 23.7559 114.52 23.5519C114.52 23.5279 114.52 23.5099 114.52 23.4979C113.5 23.6299 112.468 23.7559 111.424 23.8759L111.082 21.9859L111.604 21.9499C111.88 21.5779 112.216 21.0919 112.612 20.4919C112.396 20.2279 111.994 19.8139 111.406 19.2499V21.3019H109.948V22.0039C110.44 22.7599 110.932 23.5759 111.424 24.4519ZM118.246 24.4519H119.308C119.068 24.2359 118.894 24.0859 118.786 24.0019L119.632 23.2639C119.116 23.3359 118.612 23.4079 118.12 23.4799C118.168 23.9119 118.21 24.2359 118.246 24.4519ZM113.638 21.7879L114.16 21.7519C114.148 21.7039 114.13 21.6379 114.106 21.5539C114.07 21.4459 114.04 21.3619 114.016 21.3019L113.638 21.7879ZM115.744 21.6979C115.696 21.1099 115.648 20.2159 115.6 19.0159C115.156 19.6879 114.688 20.3659 114.196 21.0499L115.384 20.6719C115.516 20.9959 115.636 21.3379 115.744 21.6979ZM117.94 21.6439L118.174 21.6259C118.474 21.2539 118.75 20.8699 119.002 20.4739C118.678 20.0779 118.282 19.6759 117.814 19.2679C117.862 20.3119 117.904 21.1039 117.94 21.6439ZM120.262 21.4459L120.892 21.3919C120.844 21.2359 120.778 21.0619 120.694 20.8699C120.502 21.1339 120.358 21.3259 120.262 21.4459Z" fill="#3E3A39"/>
</svg>
