<svg width="158" height="47" viewBox="0 0 158 47" fill="none" xmlns="http://www.w3.org/2000/svg">
<path d="M150.57 12.2301C146.12 9.48006 144.33 6.36 143.77 2.92C143.63 2.10149 143.205 1.35897 142.57 0.824355C141.935 0.289739 141.13 -0.00233727 140.3 1.40871e-05H16.89C16.0609 -0.00197349 15.258 0.29045 14.6243 0.825209C13.9906 1.35997 13.5674 2.10231 13.43 2.92C12.86 6.36 11.07 9.48006 6.62003 12.2301C1.96003 15.1101 0 17.23 0 23.28C0 29.33 2.00003 31.46 6.62003 34.34C11.07 37.09 12.86 40.2 13.43 43.65C13.5695 44.4659 13.9937 45.2059 14.6271 45.7387C15.2606 46.2714 16.0623 46.5624 16.89 46.56H140.3C141.129 46.5628 141.932 46.2721 142.567 45.7395C143.202 45.2069 143.628 44.4667 143.77 43.65C144.33 40.2 146.12 37.09 150.57 34.34C155.23 31.46 157.2 29.39 157.2 23.28C157.2 17.17 155.2 15.1101 150.57 12.2301Z" fill="#E2542A"/>
<path d="M133.78 4.0498H22.41C21.1139 4.05245 19.8717 4.5685 18.9552 5.48499C18.0387 6.40147 17.5227 7.64372 17.52 8.93982V37.6298C17.5227 38.9259 18.0387 40.1682 18.9552 41.0847C19.8717 42.0011 21.1139 42.5172 22.41 42.5198H133.78C135.076 42.5172 136.318 42.0011 137.235 41.0847C138.151 40.1682 138.667 38.9259 138.67 37.6298V8.94983C138.671 8.30682 138.546 7.66988 138.301 7.07544C138.056 6.481 137.696 5.94073 137.241 5.4856C136.787 5.03046 136.248 4.66941 135.654 4.42303C135.06 4.17666 134.423 4.0498 133.78 4.0498Z" fill="white"/>
<path d="M133.78 41.2099H22.4098C21.4603 41.2099 20.5498 40.8327 19.8784 40.1613C19.207 39.4899 18.8298 38.5794 18.8298 37.6299V8.94989C18.8298 7.99949 19.2067 7.08789 19.8778 6.41492C20.5489 5.74195 21.4594 5.36251 22.4098 5.35986H133.78C134.732 5.35986 135.645 5.73812 136.318 6.41138C136.992 7.08463 137.37 7.99776 137.37 8.94989V37.6399C137.368 38.11 137.275 38.5753 137.094 39.0092C136.912 39.443 136.648 39.8369 136.314 40.1684C135.981 40.4999 135.585 40.7625 135.151 40.9412C134.716 41.1199 134.25 41.2112 133.78 41.2099Z" fill="#F6AB00"/>
<path d="M145.87 27.1499C148.007 27.1499 149.74 25.4172 149.74 23.2799C149.74 21.1426 148.007 19.4099 145.87 19.4099C143.733 19.4099 142 21.1426 142 23.2799C142 25.4172 143.733 27.1499 145.87 27.1499Z" fill="#003F78"/>
<path d="M9.87003 27.1499C12.0074 27.1499 13.74 25.4172 13.74 23.2799C13.74 21.1426 12.0074 19.4099 9.87003 19.4099C7.73268 19.4099 6 21.1426 6 23.2799C6 25.4172 7.73268 27.1499 9.87003 27.1499Z" fill="#003F78"/>
<path d="M133.21 7.08984H22.85C21.8283 7.08984 21 7.91809 21 8.93982V37.6298C21 38.6515 21.8283 39.4799 22.85 39.4799H133.21C134.232 39.4799 135.06 38.6515 135.06 37.6298V8.93982C135.06 7.91809 134.232 7.08984 133.21 7.08984Z" fill="white"/>
<path d="M45.418 32.3179C45.022 32.3899 44.398 32.4139 43.546 32.3899C43.534 32.0419 43.468 31.6579 43.348 31.2379C43.24 30.8179 43.102 30.4579 42.934 30.1579C43.258 30.2059 43.63 30.2299 44.05 30.2299C44.266 30.2299 44.44 30.1639 44.572 30.0319C44.764 29.8039 44.926 29.0419 45.058 27.7459H38.722V29.5639H40.234V28.0879H42.628V31.5079H34.726V32.2279H32.368V28.0879H34.726V29.5639H36.328V27.7459H33.988V16.5859H38.002C38.122 15.9739 38.194 15.5239 38.218 15.2359L41.386 15.4159C41.242 15.7759 41.056 16.1659 40.828 16.5859H45.634V22.7959H36.58V23.3719H48.352V25.2619H36.58V25.8919H47.74C47.716 26.1919 47.692 26.4919 47.668 26.7919C47.56 28.2559 47.428 29.3599 47.272 30.1039C47.128 30.8479 46.942 31.3519 46.714 31.6159C46.39 31.9879 45.958 32.2219 45.418 32.3179ZM36.58 21.0499H43.006V20.4379H36.58V21.0499ZM36.58 18.8899H43.006V18.3499H36.58V18.8899ZM64.066 32.4259C62.974 32.4139 61.966 31.8139 61.042 30.6259C60.178 29.5099 59.5 28.0159 59.008 26.1439H54.886V28.8619C56.218 28.7299 57.634 28.5739 59.134 28.3939L59.224 30.9859C57.52 31.2139 55.012 31.5319 51.7 31.9399C51.292 31.9879 50.992 32.0239 50.8 32.0479L50.26 29.3119C50.488 29.2999 50.842 29.2699 51.322 29.2219C51.694 29.1859 51.976 29.1619 52.168 29.1499V16.0459H65.452V22.2919H61.06C61.096 22.8199 61.156 23.2939 61.24 23.7139H66.694V26.1439H61.816C62.164 27.2239 62.554 28.1059 62.986 28.7899C63.442 29.4859 63.85 29.8279 64.21 29.8159C64.402 29.8159 64.546 29.6119 64.642 29.2039C64.738 28.8079 64.816 28.1599 64.876 27.2599C65.152 27.5239 65.512 27.7759 65.956 28.0159C66.376 28.2559 66.766 28.4299 67.126 28.5379C66.958 30.0859 66.628 31.1419 66.136 31.7059C65.716 32.1859 65.026 32.4259 64.066 32.4259ZM54.886 23.7139H58.522C58.45 23.2459 58.396 22.7719 58.36 22.2919H54.886V23.7139ZM54.886 19.8799H62.788V18.4579H54.886V19.8799ZM68.944 31.9039V29.3479H75.748V26.2519H71.086V23.7319H75.748V20.9779H72.292C71.74 21.9979 71.218 22.8139 70.726 23.4259C70.09 22.8739 69.304 22.3459 68.368 21.8419C69.04 21.1219 69.664 20.1799 70.24 19.0159C70.78 17.8999 71.206 16.7179 71.518 15.4699L74.236 16.0819C74.044 16.8019 73.78 17.5819 73.444 18.4219H75.748V15.2899H78.484V18.4219H84.37V20.9779H78.484V23.7319H83.65V26.2519H78.484V29.3479H85.324V31.9039H68.944ZM93.676 32.3719V24.9199H97.258V23.0119H92.65V20.5099H97.258V18.8539C96.19 19.0099 95.098 19.1359 93.982 19.2319C93.886 18.5239 93.652 17.7799 93.28 16.9999C96.82 16.6639 99.568 16.0819 101.524 15.2539L103.522 17.3059C102.322 17.7739 101.062 18.1399 99.742 18.4039V20.5099H104.134V23.0119H99.742V24.9199H103.378V32.2999H100.894V31.6519H96.034V32.3719H93.676ZM89.572 32.1919L87.358 30.4279C88.558 28.7479 89.698 26.8759 90.778 24.8119L92.704 26.5579C91.732 28.4899 90.688 30.3679 89.572 32.1919ZM96.034 29.2939H100.894V27.2779H96.034V29.2939ZM90.58 24.3619C90.004 23.9539 88.87 23.3059 87.178 22.4179L88.582 20.4739C90.25 21.2299 91.402 21.7999 92.038 22.1839L90.58 24.3619ZM91.282 19.3939C90.946 19.1419 90.166 18.6559 88.942 17.9359C88.522 17.6959 88.222 17.5219 88.042 17.4139L89.518 15.5239C89.59 15.5599 89.71 15.6199 89.878 15.7039C91.39 16.4719 92.374 16.9999 92.83 17.2879L91.282 19.3939ZM106.96 32.4079V20.8159H108.904C109.024 20.4319 109.108 20.1139 109.156 19.8619L109.786 19.8979C109.558 19.4179 109.33 18.9919 109.102 18.6199C108.622 19.3399 108.124 19.9639 107.608 20.4919C107.068 20.0359 106.36 19.5679 105.484 19.0879C106.036 18.6319 106.564 18.0379 107.068 17.3059C107.536 16.6099 107.92 15.8779 108.22 15.1099L110.65 15.7579C110.518 16.0699 110.386 16.3699 110.254 16.6579H113.89V18.1879C114.706 17.2639 115.306 16.2379 115.69 15.1099L118.156 15.7399C118.084 15.9439 117.952 16.2499 117.76 16.6579H122.35V18.5479H119.83C120.19 19.0519 120.448 19.4899 120.604 19.8619L119.614 20.2399H121.9V27.5659C121.9 28.1539 121.846 28.5979 121.738 28.8979C121.606 29.2579 121.372 29.5279 121.036 29.7079C120.724 29.8879 120.334 30.0079 119.866 30.0679C119.518 30.1159 119.008 30.1399 118.336 30.1399C118.252 29.3599 118.03 28.5619 117.67 27.7459C118.294 27.7819 118.78 27.7879 119.128 27.7639C119.32 27.7639 119.416 27.6799 119.416 27.5119V22.5979H117.292V32.0299H114.844V20.2399H114.88C114.28 19.7599 113.662 19.3519 113.026 19.0159C113.11 18.9559 113.224 18.8539 113.368 18.7099C113.452 18.6379 113.512 18.5839 113.548 18.5479H111.658C111.946 19.0399 112.138 19.4479 112.234 19.7719L111.712 20.0059L111.928 20.0239C111.868 20.1439 111.778 20.3239 111.658 20.5639C111.598 20.6719 111.556 20.7559 111.532 20.8159H114.052V26.6299H109.372V27.0799H113.89V28.8079H109.372V29.2759H114.214V31.0759H109.372V32.4079H106.96ZM109.372 24.9919H111.604V24.4879H109.372V24.9919ZM109.372 22.9399H111.604V22.4539H109.372V22.9399ZM115.366 20.2399H118.138C117.85 19.6879 117.496 19.1239 117.076 18.5479H116.698C116.278 19.1959 115.834 19.7599 115.366 20.2399Z" fill="#3E3A39"/>
</svg>
