<svg width="70" height="83" viewBox="0 0 70 83" fill="none" xmlns="http://www.w3.org/2000/svg">
<path d="M36.1622 80.987C35.6457 81.8817 34.3543 81.8817 33.8378 80.987L27.5019 70.013C26.9854 69.1183 27.6311 68 28.6641 68L41.3359 68C42.3689 68 43.0146 69.1183 42.4981 70.013L36.1622 80.987Z" fill="#B8E2FF"/>
<path d="M27.716 32.152C27.292 31.648 26.904 31.256 26.552 30.976C27.592 30.568 28.372 30.06 28.892 29.452H27.284V27.928H27.68L27.524 21.736L28.304 21.868C28.608 21.604 28.86 21.352 29.06 21.112L29.78 21.736V21.016H30.968V22.024H31.94V23.32H30.968V24.04H32V27.928H32.696C32.712 27.576 32.724 27.304 32.732 27.112H32.228V25.816H32.78L32.792 25.048H32.228V23.752H32.816V23.032H32.228V21.736H34.244C34.244 24.032 34.2 26.096 34.112 27.928H34.58V29.452H32.672C33.568 30.276 34.204 30.908 34.58 31.348L33.116 32.14C32.82 31.74 32.172 31.04 31.172 30.04L32.336 29.452H29.216L30.5 29.884C30.18 30.324 29.756 30.752 29.228 31.168C28.74 31.56 28.236 31.888 27.716 32.152ZM23.444 30.58V23.128H24.476V28.216H24.692V20.968H25.916V28.216H26.18V23.128H27.164V30.1H26.18V29.512H24.476V30.58H23.444ZM29.06 27.928H29.732V25.72H30.68V27.928H30.98V25.336H29.78V22.372C29.444 22.596 29.16 22.784 28.928 22.936L28.952 23.752H29.492V25.048H28.988L29 25.864H29.492V27.16H29.036L29.06 27.928ZM41.312 32.152C41.28 31.904 41.204 31.608 41.084 31.264C40.972 30.92 40.852 30.632 40.724 30.4C41.036 30.408 41.416 30.412 41.864 30.412C42.008 30.412 42.08 30.348 42.08 30.22V24.412H40.928C40.576 25.076 40.204 25.648 39.812 26.128C39.38 25.696 38.912 25.312 38.408 24.976C38.856 24.504 39.268 23.884 39.644 23.116C40.004 22.388 40.288 21.608 40.496 20.776L42.212 21.172C42.036 21.78 41.852 22.324 41.66 22.804H45.404L45.668 22.756L46.904 22.972C46.776 23.964 46.604 24.948 46.388 25.924L44.9 25.66C44.964 25.196 45.016 24.78 45.056 24.412H43.808V30.244C43.808 30.668 43.768 30.992 43.688 31.216C43.592 31.472 43.428 31.668 43.196 31.804C42.796 32.036 42.168 32.152 41.312 32.152ZM36.74 32.128V26.296C36.62 26.448 36.436 26.664 36.188 26.944L36.152 26.98C36.072 26.748 35.936 26.44 35.744 26.056C35.544 25.656 35.376 25.352 35.24 25.144C35.76 24.624 36.252 23.976 36.716 23.2C37.18 22.416 37.556 21.612 37.844 20.788L39.488 21.304C39.176 22.128 38.812 22.932 38.396 23.716V32.128H36.74ZM40.208 30.592C39.832 30.272 39.34 29.96 38.732 29.656C39.036 29.272 39.312 28.764 39.56 28.132C39.784 27.54 39.96 26.912 40.088 26.248L41.78 26.596C41.62 27.348 41.396 28.084 41.108 28.804C40.828 29.516 40.528 30.112 40.208 30.592ZM45.08 30.556C45.032 30.028 44.904 29.396 44.696 28.66C44.496 27.916 44.26 27.24 43.988 26.632L45.548 26.104C45.836 26.696 46.092 27.36 46.316 28.096C46.532 28.792 46.68 29.416 46.76 29.968L45.08 30.556ZM24.92 49.14V44.976C24.568 45.904 24.192 46.636 23.792 47.172C23.656 46.74 23.388 46.188 22.988 45.516C23.348 45.076 23.684 44.508 23.996 43.812C24.284 43.172 24.52 42.504 24.704 41.808H23.312V40.164H24.92V37.74H26.588V40.164H27.968V41.808H26.588V42.324C26.996 42.772 27.54 43.44 28.22 44.328L27.248 45.732C27.072 45.34 26.852 44.916 26.588 44.46V49.14H24.92ZM28.34 49.032V38.352H34.124V48.936H32.372V48.348H30.008V49.032H28.34ZM30.008 46.776H32.372V45.552H30.008V46.776ZM30.008 43.98H32.372V42.756H30.008V43.98ZM30.008 41.184H32.372V39.996H30.008V41.184ZM46.412 48.9C44.532 49.004 42.708 49.02 40.94 48.948C40.196 48.916 39.588 48.808 39.116 48.624C38.596 48.424 38.152 48.1 37.784 47.652C37.296 48.108 36.764 48.572 36.188 49.044L35.384 47.316C35.968 46.98 36.452 46.668 36.836 46.38V44.724H35.588V43.128H38.504V46.248C38.672 46.52 38.888 46.736 39.152 46.896V42.588H41.852V42.216H39.596V38.064H45.8V42.216H43.412V42.588H46.448V46.044C46.448 46.372 46.408 46.62 46.328 46.788C46.248 46.948 46.1 47.076 45.884 47.172C45.588 47.292 45.02 47.352 44.18 47.352C44.116 47.024 43.976 46.636 43.76 46.188C43.968 46.204 44.264 46.212 44.648 46.212C44.768 46.204 44.828 46.148 44.828 46.044V45.852L43.856 46.092C43.848 45.996 43.836 45.888 43.82 45.768C43.252 45.84 42.444 45.94 41.396 46.068C41.236 46.084 41.116 46.096 41.036 46.104L40.88 44.76C40.904 44.76 40.94 44.76 40.988 44.76C41.356 44.744 41.644 44.728 41.852 44.712V43.944H40.724V47.076H39.488C39.872 47.236 40.36 47.328 40.952 47.352C41.72 47.392 42.688 47.4 43.856 47.376C45.08 47.352 46.108 47.304 46.94 47.232C46.836 47.44 46.732 47.708 46.628 48.036C46.516 48.38 46.444 48.668 46.412 48.9ZM44.828 45.264V43.944H43.304V44.64L43.58 44.628C43.564 44.58 43.54 44.508 43.508 44.412C43.5 44.388 43.496 44.368 43.496 44.352L44.504 44.136C44.64 44.528 44.748 44.904 44.828 45.264ZM37.424 42.744C37.248 42.536 36.98 42.288 36.62 42C36.284 41.728 35.944 41.484 35.6 41.268L36.728 40.2C37.6 40.68 38.232 41.136 38.624 41.568L37.424 42.744ZM41.132 41.052H41.852V40.68H41.132V41.052ZM43.412 41.052H44.18V40.68H43.412V41.052ZM37.796 40.368C37.452 39.912 36.868 39.4 36.044 38.832L37.196 37.8C38.036 38.304 38.648 38.78 39.032 39.228L37.796 40.368ZM41.132 39.6H41.852V39.228H41.132V39.6ZM43.412 39.6H44.18V39.228H43.412V39.6Z" fill="#B8E2FF"/>
<rect x="2" y="2" width="66" height="66" rx="33" stroke="#B8E2FF" stroke-width="4"/>
</svg>
