<svg width="70" height="83" viewBox="0 0 70 83" fill="none" xmlns="http://www.w3.org/2000/svg">
<path d="M36.1622 80.987C35.6457 81.8817 34.3543 81.8817 33.8378 80.987L27.5019 70.013C26.9854 69.1183 27.6311 68 28.6641 68L41.3359 68C42.3689 68 43.0146 69.1183 42.4981 70.013L36.1622 80.987Z" fill="#B8E2FF"/>
<path d="M32.612 32.152C31.668 31.768 30.52 31.392 29.168 31.024L29.744 30.556H27.872L28.52 31.012C28.032 31.26 27.396 31.488 26.612 31.696C25.876 31.888 25.144 32.032 24.416 32.128C24.096 31.712 23.748 31.336 23.372 31C24.124 30.92 24.924 30.772 25.772 30.556H24.944V26.476H32.972V30.556H32C32.032 30.564 32.08 30.576 32.144 30.592C33.12 30.872 33.776 31.068 34.112 31.18L32.612 32.152ZM26.624 29.692H31.196V29.44H26.624V29.692ZM26.624 28.636H31.196V28.384H26.624V28.636ZM26.624 27.58H31.196V27.34H26.624V27.58ZM23.936 26.416L23.828 25.3C24.388 25.284 25.024 25.26 25.736 25.228V24.964H24.464V24.148H25.736V23.896H24.296V23.32H23.6V21.352H27.944V20.728H29.696V21.352H34.028V23.32H33.032V23.872H31.832V24.1H33.848V24.928H31.832V25.408H32.264V24.976H33.512V26.236H28.844V24.976H30.032V25.408H30.416V24.928H28.544V24.1H28.892C28.7 23.964 28.52 23.852 28.352 23.764V23.896H27.152V24.148H28.304V24.964H27.152V25.18L28.484 25.12L28.472 26.164C27.304 26.244 25.792 26.328 23.936 26.416ZM29.624 24.1H30.416V23.872H29.828C29.804 23.896 29.768 23.936 29.72 23.992C29.68 24.04 29.648 24.076 29.624 24.1ZM28.352 23.752C28.752 23.456 29.06 23.1 29.276 22.684H25.16V22.96H28.352V23.752ZM30.344 23.044H32.396V22.684H30.056L30.488 22.756C30.44 22.852 30.392 22.948 30.344 23.044ZM44.792 32.092C44.528 32.14 44.112 32.156 43.544 32.14C43.536 31.908 43.492 31.652 43.412 31.372C43.34 31.092 43.248 30.852 43.136 30.652C43.352 30.684 43.6 30.7 43.88 30.7C44.024 30.7 44.14 30.656 44.228 30.568C44.356 30.416 44.464 29.908 44.552 29.044H40.328V30.256H41.336V29.272H42.932V31.552H37.664V32.032H36.092V29.272H37.664V30.256H38.732V29.044H37.172V21.604H39.848C39.928 21.196 39.976 20.896 39.992 20.704L42.104 20.824C42.008 21.064 41.884 21.324 41.732 21.604H44.936V25.744H38.9V26.128H46.748V27.388H38.9V27.808H46.34C46.324 28.008 46.308 28.208 46.292 28.408C46.22 29.384 46.132 30.12 46.028 30.616C45.932 31.112 45.808 31.448 45.656 31.624C45.44 31.872 45.152 32.028 44.792 32.092ZM38.9 24.58H43.184V24.172H38.9V24.58ZM38.9 23.14H43.184V22.78H38.9V23.14ZM24.488 49.128C24.424 48.64 24.244 48.096 23.948 47.496C24.284 47.512 24.728 47.52 25.28 47.52C25.376 47.52 25.44 47.508 25.472 47.484C25.504 47.46 25.52 47.408 25.52 47.328V45.084H21.488V43.572H25.52V42.744H21.488V41.22H24.032V40.428H21.824V38.928H24.032V37.728H25.748V38.928H28.04V40.428H25.748V41.22H28.304V42.744H27.224V43.572H28.244V45.084H27.224V47.364C27.224 47.772 27.18 48.084 27.092 48.3C26.988 48.54 26.808 48.72 26.552 48.84C26.152 49.032 25.464 49.128 24.488 49.128ZM17.312 47.952V38.448H21.272V46.836H18.92V47.952H17.312ZM23.12 47.856C22.912 47.304 22.48 46.644 21.824 45.876L23.216 45.084C23.928 45.844 24.396 46.48 24.62 46.992L23.12 47.856ZM18.92 45.288H19.652V43.32H18.92V45.288ZM18.92 41.808H19.652V39.996H18.92V41.808ZM30.26 49.164C30.164 48.924 30.012 48.652 29.804 48.348C29.596 48.044 29.396 47.804 29.204 47.628C30.068 47.372 30.732 47.044 31.196 46.644C31.604 46.3 31.892 45.86 32.06 45.324C32.188 44.948 32.28 44.4 32.336 43.68H29.552V42.036H34.064V37.74H35.84V42.036H40.472V43.68H37.4V46.944C37.4 47.168 37.42 47.312 37.46 47.376C37.508 47.432 37.62 47.46 37.796 47.46H38.636C38.812 47.46 38.924 47.352 38.972 47.136C39.028 46.92 39.072 46.412 39.104 45.612C39.272 45.748 39.524 45.888 39.86 46.032C40.156 46.16 40.432 46.256 40.688 46.32C40.608 47.4 40.432 48.132 40.16 48.516C39.896 48.9 39.44 49.092 38.792 49.092H37.52C36.776 49.092 36.272 48.936 36.008 48.624C35.76 48.328 35.636 47.772 35.636 46.956V43.68H34.208C34.128 44.624 33.996 45.38 33.812 45.948C33.572 46.692 33.192 47.312 32.672 47.808C32.088 48.368 31.284 48.82 30.26 49.164ZM31.484 41.772C31.324 40.988 30.944 40 30.344 38.808L31.916 38.208C32.58 39.376 33.004 40.336 33.188 41.088L31.484 41.772ZM38.276 41.688L36.74 41.112C37.292 40.2 37.728 39.212 38.048 38.148L39.908 38.772C39.252 40.084 38.708 41.056 38.276 41.688ZM43.004 49.14V45.3C42.788 45.964 42.536 46.532 42.248 47.004C42.12 46.612 41.884 46.116 41.54 45.516C41.828 45.084 42.096 44.508 42.344 43.788C42.576 43.132 42.76 42.452 42.896 41.748H41.84V40.164H43.004V37.74H44.552V40.164H45.284L45.2 40.092L45.824 39.144L45.968 39.252C46.176 38.756 46.348 38.268 46.484 37.788L47.768 38.268C47.64 38.476 47.46 38.792 47.228 39.216C47.028 39.56 46.884 39.808 46.796 39.96C46.82 39.976 46.852 40.008 46.892 40.056C46.932 40.096 46.96 40.128 46.976 40.152C47.16 39.824 47.336 39.48 47.504 39.12L48.296 39.504C48.288 39.12 48.284 38.536 48.284 37.752L49.796 37.764C49.78 38.596 49.776 39.216 49.784 39.624L50.096 39.144L50.228 39.252C50.46 38.7 50.636 38.212 50.756 37.788L52.052 38.256C51.948 38.432 51.792 38.696 51.584 39.048C51.336 39.472 51.156 39.772 51.044 39.948C51.076 39.972 51.12 40.016 51.176 40.08C51.2 40.104 51.22 40.124 51.236 40.14C51.484 39.7 51.664 39.36 51.776 39.12L52.952 39.684C52.92 39.732 52.872 39.804 52.808 39.9C52.336 40.596 51.976 41.112 51.728 41.448L52.664 41.1C52.976 41.788 53.164 42.396 53.228 42.924L52.208 43.332C52.2 43.204 52.176 43.056 52.136 42.888L51.536 42.984C51.88 43.24 52.128 43.468 52.28 43.668L52.076 43.848H52.94V45.18H51.452L52.496 45.576C52.152 46.256 51.712 46.856 51.176 47.376C51.36 47.592 51.552 47.7 51.752 47.7C51.888 47.7 51.984 47.632 52.04 47.496C52.104 47.344 52.152 47.056 52.184 46.632C52.472 46.944 52.84 47.204 53.288 47.412C53.168 48.092 52.988 48.556 52.748 48.804C52.516 49.028 52.144 49.14 51.632 49.14C51.008 49.14 50.472 48.86 50.024 48.3C49.536 48.628 48.984 48.904 48.368 49.128C48.152 48.752 47.852 48.38 47.468 48.012C48.14 47.796 48.768 47.484 49.352 47.076C49.136 46.532 48.956 45.9 48.812 45.18H47.744L47.708 45.504C48.292 45.912 48.72 46.264 48.992 46.56L48.08 47.724C47.944 47.54 47.704 47.3 47.36 47.004C47.048 47.9 46.512 48.608 45.752 49.128C45.648 48.936 45.508 48.732 45.332 48.516C45.14 48.276 44.96 48.096 44.792 47.976C45.272 47.664 45.628 47.248 45.86 46.728C46.036 46.328 46.16 45.812 46.232 45.18H45.536V44.748L45.008 45.528C44.888 45.152 44.736 44.744 44.552 44.304V49.14H43.004ZM50.516 45.948C50.724 45.668 50.884 45.412 50.996 45.18H50.312C50.36 45.396 50.428 45.652 50.516 45.948ZM45.536 43.848H48.596C48.58 43.712 48.556 43.5 48.524 43.212L47.624 43.536C47.624 43.48 47.616 43.384 47.6 43.248C47.6 43.232 47.6 43.22 47.6 43.212C46.92 43.3 46.232 43.384 45.536 43.464L45.308 42.204L45.656 42.18C45.84 41.932 46.064 41.608 46.328 41.208C46.184 41.032 45.916 40.756 45.524 40.38V41.748H44.552V42.216C44.88 42.72 45.208 43.264 45.536 43.848ZM50.084 43.848H50.792C50.632 43.704 50.516 43.604 50.444 43.548L51.008 43.056C50.664 43.104 50.328 43.152 50 43.2C50.032 43.488 50.06 43.704 50.084 43.848ZM47.012 42.072L47.36 42.048C47.352 42.016 47.34 41.972 47.324 41.916C47.3 41.844 47.28 41.788 47.264 41.748L47.012 42.072ZM48.416 42.012C48.384 41.62 48.352 41.024 48.32 40.224C48.024 40.672 47.712 41.124 47.384 41.58L48.176 41.328C48.264 41.544 48.344 41.772 48.416 42.012ZM49.88 41.976L50.036 41.964C50.236 41.716 50.42 41.46 50.588 41.196C50.372 40.932 50.108 40.664 49.796 40.392C49.828 41.088 49.856 41.616 49.88 41.976ZM51.428 41.844L51.848 41.808C51.816 41.704 51.772 41.588 51.716 41.46C51.588 41.636 51.492 41.764 51.428 41.844Z" fill="#B8E2FF"/>
<rect x="2" y="2" width="66" height="66" rx="33" stroke="#B8E2FF" stroke-width="4"/>
</svg>
