<svg width="70" height="80" viewBox="0 0 70 80" fill="none" xmlns="http://www.w3.org/2000/svg">
<path d="M36.1295 78.2392C35.6015 79.0624 34.3985 79.0624 33.8705 78.2392L27.6655 68.5666C27.0925 67.6734 27.7339 66.5 28.795 66.5L41.205 66.5C42.2661 66.5 42.9075 67.6734 42.3345 68.5666L36.1295 78.2392Z" fill="#B8E2FF"/>
<path d="M18.272 32.176C18.184 32.032 18.036 31.84 17.828 31.6C17.628 31.368 17.456 31.184 17.312 31.048C17.48 30.952 17.66 30.836 17.852 30.7H16.568V31.36H15.26V26.224H18.644V30.04C18.948 29.72 19.168 29.472 19.304 29.296C19.152 28.352 19.044 27.188 18.98 25.804H14.924V24.472H15.5C15.476 24.048 15.404 23.62 15.284 23.188L15.884 23.044H15.104V22.684H14.696V32.14H13.256V30.208C12.928 30.28 12.448 30.38 11.816 30.508C11.432 30.58 11.152 30.636 10.976 30.676L10.688 29.092C10.784 29.084 10.94 29.064 11.156 29.032C11.252 29.016 11.324 29.004 11.372 28.996V22.684H10.94V21.16H15.164V21.796H16.208V20.788H17.684V21.796H18.728V23.044H17.948L18.62 23.164C18.508 23.484 18.36 23.92 18.176 24.472H18.92C18.896 23.688 18.876 22.444 18.86 20.74H20.384L20.372 21.676L21.128 21.28C21.64 21.912 22.016 22.544 22.256 23.176L21.068 23.848C20.924 23.432 20.692 22.96 20.372 22.432C20.372 22.928 20.38 23.608 20.396 24.472H22.172V25.804H20.444C20.452 26.14 20.472 26.564 20.504 27.076C20.616 26.788 20.716 26.48 20.804 26.152L22.184 26.452C21.944 27.292 21.632 28.072 21.248 28.792C21.48 29.104 21.844 29.424 22.34 29.752C22.188 30.648 21.964 31.296 21.668 31.696C21.444 31.992 21.196 32.14 20.924 32.14C20.412 32.132 20.008 31.736 19.712 30.952C19.272 31.424 18.792 31.832 18.272 32.176ZM21.008 30.124C21.12 30.124 21.196 29.692 21.236 28.828C21.14 29.004 20.988 29.26 20.78 29.596C20.852 29.948 20.928 30.124 21.008 30.124ZM16.568 29.536H17.312V29.02H16.568V29.536ZM12.776 28.78L13.256 28.696V27.58H12.776V28.78ZM16.568 27.916H17.312V27.4H16.568V27.916ZM12.776 26.188H13.256V25.144H12.776V26.188ZM16.22 24.472H17.576L17.072 24.364C17.192 23.828 17.276 23.388 17.324 23.044H16.412C16.556 23.476 16.636 23.916 16.652 24.364L16.22 24.472ZM12.776 23.752H13.256V22.684H12.776V23.752ZM24.488 32.044C24.144 31.54 23.648 31.072 23 30.64C24.328 29.872 25.368 28.844 26.12 27.556C26.704 26.564 27.112 25.424 27.344 24.136C27.472 23.416 27.552 22.516 27.584 21.436C27.584 21.22 27.588 21.068 27.596 20.98H29.612C29.604 21.204 29.592 21.468 29.576 21.772C29.664 23.316 29.972 24.728 30.5 26.008C31.38 28.12 32.78 29.632 34.7 30.544C34.108 30.984 33.66 31.48 33.356 32.032C31.188 30.928 29.648 29.052 28.736 26.404C27.904 28.86 26.488 30.74 24.488 32.044ZM45.86 32.14C44.988 31.692 44.252 31.108 43.652 30.388C42.996 31.068 42.172 31.644 41.18 32.116C41.06 31.812 40.844 31.432 40.532 30.976H37.568V31.612H35.96V26.152H37.496V24.496H35.48V22.876H37.496V20.74H39.248V22.876H41.108V24.16C41.54 23.216 41.852 22.072 42.044 20.728L43.82 21.004C43.708 21.66 43.576 22.272 43.424 22.84H46.88V24.484H46.184C45.888 26.284 45.416 27.752 44.768 28.888C45.384 29.656 46.144 30.236 47.048 30.628C46.856 30.788 46.64 31.024 46.4 31.336C46.168 31.632 45.988 31.9 45.86 32.14ZM40.76 30.34C41.512 29.972 42.152 29.492 42.68 28.9C42.336 28.236 42.04 27.468 41.792 26.596C41.632 26.804 41.512 26.956 41.432 27.052C41.264 26.876 41.04 26.676 40.76 26.452V30.34ZM37.568 29.356H39.104V27.772H37.568V29.356ZM43.736 27.184C44.064 26.432 44.3 25.532 44.444 24.484H42.92C43.12 25.508 43.392 26.408 43.736 27.184ZM39.248 26.152H40.376C40.216 26.032 40.088 25.94 39.992 25.876C40.36 25.492 40.676 25.032 40.94 24.496H39.248V26.152ZM51.476 32.176C51.38 31.736 51.192 31.288 50.912 30.832C51.24 30.848 51.704 30.856 52.304 30.856C52.416 30.848 52.492 30.824 52.532 30.784C52.58 30.744 52.604 30.672 52.604 30.568V30.424H49.088V29.188H52.604V28.828H47.924V27.52H52.604V27.196H49.172V26.044H52.604V25.684H49.436V23.14H52.604V22.78H48.224V21.424H52.604V20.74H54.38V21.424H58.868V22.78H54.38V23.14H57.692V25.684H54.38V26.044H57.908V27.52H59.168V28.828H57.908V30.916H56.132V30.424H54.38V30.568C54.38 30.96 54.328 31.256 54.224 31.456C54.12 31.656 53.94 31.816 53.684 31.936C53.444 32.04 53.14 32.108 52.772 32.14C52.492 32.164 52.06 32.176 51.476 32.176ZM54.38 29.188H56.132V28.828H54.38V29.188ZM54.38 27.52H56.132V27.196H54.38V27.52ZM51.104 24.616H52.604V24.208H51.104V24.616ZM54.38 24.616H55.904V24.208H54.38V24.616ZM18.128 49.2C17.72 48.856 17.268 48.552 16.772 48.288C17.38 47.728 17.824 46.988 18.104 46.068L19.688 46.452L19.664 46.536L20.744 46.068H17.552V38.208H21.596V46.068H20.888C21.192 46.468 21.464 46.896 21.704 47.352C21.952 46.752 22.12 46.028 22.208 45.18C22.272 44.604 22.304 43.88 22.304 43.008V38.376H27.992V39.948H23.9V41.34H26.684L26.972 41.304L27.992 41.52C27.816 43.536 27.388 45.168 26.708 46.416C27.252 47.008 27.852 47.464 28.508 47.784C28.324 47.936 28.12 48.148 27.896 48.42C27.672 48.7 27.5 48.952 27.38 49.176C26.756 48.808 26.2 48.352 25.712 47.808C25.224 48.336 24.664 48.768 24.032 49.104C23.792 48.648 23.528 48.244 23.24 47.892C23.064 48.388 22.84 48.82 22.568 49.188C22.416 49.052 22.192 48.888 21.896 48.696C21.608 48.512 21.368 48.38 21.176 48.3C21.32 48.092 21.42 47.932 21.476 47.82L20.444 48.312C20.292 47.88 20.008 47.348 19.592 46.716C19.2 47.756 18.712 48.584 18.128 49.2ZM23.372 47.508C23.884 47.228 24.332 46.856 24.716 46.392C24.404 45.848 24.12 45.204 23.864 44.46C23.792 45.676 23.628 46.692 23.372 47.508ZM25.64 44.832C25.888 44.256 26.08 43.596 26.216 42.852H24.872C25.088 43.596 25.344 44.256 25.64 44.832ZM19.088 44.7H19.988V43.824H19.088V44.7ZM19.088 42.564H19.988V41.7H19.088V42.564ZM19.088 40.428H19.988V39.576H19.088V40.428ZM38.624 49.2C37.928 48.88 36.884 48.54 35.492 48.18L36.728 47.532H33.416L34.496 48.036C33.504 48.492 32.192 48.868 30.56 49.164C30.112 48.644 29.704 48.252 29.336 47.988C30.544 47.876 31.548 47.724 32.348 47.532H31.004V43.332H39.176V47.532H37.508C38.876 47.892 39.944 48.2 40.712 48.456L38.624 49.2ZM32.696 46.668H37.4V46.38H32.696V46.668ZM32.696 45.564H37.4V45.288H32.696V45.564ZM32.696 44.472H37.4V44.208H32.696V44.472ZM30.308 43.068V40.872H39.74V43.068H30.308ZM31.844 42.156H32.996V41.784H31.844V42.156ZM34.364 42.156H35.54V41.784H34.364V42.156ZM36.908 42.156H38.12V41.784H36.908V42.156ZM30.668 40.632V39.648H34.1V39.396H29.744V38.292H34.1V37.74H35.828V38.292H40.28V39.396H35.828V39.648H39.476V40.632H30.668ZM50.408 49.152V43.476H49.376C49.2 45.988 48.464 47.872 47.168 49.128C47.056 48.944 46.864 48.728 46.592 48.48C46.32 48.232 46.084 48.056 45.884 47.952C46.628 47.216 47.144 46.264 47.432 45.096C47.624 44.304 47.72 43.324 47.72 42.156V38.748L48.86 39.012C49.98 38.66 50.88 38.272 51.56 37.848L53.084 39.156C52.076 39.652 50.856 40.08 49.424 40.44V41.796H53.072V43.476H52.136V49.152H50.408ZM42.872 49.008C42.744 48.816 42.536 48.596 42.248 48.348C41.96 48.108 41.712 47.94 41.504 47.844C41.832 47.18 42.056 46.332 42.176 45.3C42.256 44.62 42.296 43.76 42.296 42.72V38.7L43.136 38.928C44.32 38.648 45.28 38.312 46.016 37.92L47.396 39.24C46.476 39.632 45.344 39.964 44 40.236V40.716H47.24V44.976H43.904C43.752 46.696 43.408 48.04 42.872 49.008ZM43.988 43.428H45.56V42.264H44V42.756C44 43.044 43.996 43.268 43.988 43.428Z" fill="#B8E2FF"/>
<rect x="2" y="2" width="66" height="66" rx="33" stroke="#B8E2FF" stroke-width="4"/>
</svg>
