<svg width="70" height="83" viewBox="0 0 70 83" fill="none" xmlns="http://www.w3.org/2000/svg">
<path d="M36.1622 80.987C35.6457 81.8817 34.3543 81.8817 33.8378 80.987L27.5019 70.013C26.9854 69.1183 27.6311 68 28.6641 68L41.3359 68C42.3689 68 43.0146 69.1183 42.4981 70.013L36.1622 80.987Z" fill="#FFB516"/>
<path d="M24.92 32.128V30.616C24.712 31.12 24.468 31.552 24.188 31.912C24.068 31.76 23.88 31.568 23.624 31.336C23.376 31.112 23.18 30.956 23.036 30.868C23.5 30.252 23.824 29.464 24.008 28.504C24.128 27.848 24.188 27.064 24.188 26.152V24.88L23.984 25.012C23.88 24.82 23.72 24.596 23.504 24.34C23.296 24.076 23.108 23.88 22.94 23.752C24.228 23.032 25.216 22.088 25.904 20.92H27.452C28.548 21.76 29.348 22.444 29.852 22.972V22.216H31.496V29.08H29.852V23.044L28.784 24.292C28.768 24.276 28.744 24.248 28.712 24.208C28.52 23.984 28.364 23.808 28.244 23.68V24.232H25.532V23.836C25.22 24.108 24.936 24.34 24.68 24.532H29.288V28.516H25.484C25.476 28.588 25.456 28.696 25.424 28.84H29.492V32.104H27.98V31.816H26.372V32.128H24.92ZM31.112 32.128C31.08 31.888 31.008 31.592 30.896 31.24C30.792 30.888 30.68 30.588 30.56 30.34C31 30.364 31.532 30.376 32.156 30.376C32.348 30.376 32.444 30.284 32.444 30.1V20.992H34.136V30.112C34.136 30.584 34.088 30.944 33.992 31.192C33.888 31.448 33.708 31.644 33.452 31.78C33.028 32.012 32.248 32.128 31.112 32.128ZM26.372 30.592H27.98V30.064H26.372V30.592ZM25.616 27.34H27.74V27.016H25.64L25.616 27.34ZM25.664 26.02H27.74V25.72H25.664V26.02ZM26.288 23.092H27.668C27.412 22.828 27.156 22.596 26.9 22.396C26.74 22.604 26.536 22.836 26.288 23.092ZM41.864 32.14V24.328H41.636C41.132 25.232 40.624 25.976 40.112 26.56C39.976 26.4 39.768 26.192 39.488 25.936C39.208 25.672 38.976 25.472 38.792 25.336C39.304 24.816 39.788 24.148 40.244 23.332C40.676 22.54 41.028 21.708 41.3 20.836L42.98 21.28C42.82 21.76 42.64 22.224 42.44 22.672H46.916V24.328H43.664V25.324H46.592V26.908H43.664V27.988H46.748V29.608H43.664V32.14H41.864ZM36.788 32.128V26.464C36.676 26.6 36.508 26.788 36.284 27.028C36.196 26.796 36.06 26.484 35.876 26.092C35.668 25.668 35.492 25.352 35.348 25.144C35.868 24.624 36.36 23.976 36.824 23.2C37.296 22.416 37.676 21.612 37.964 20.788L39.656 21.328C39.344 22.16 38.976 22.972 38.552 23.764V32.128H36.788ZM24.272 48.804V47.388H27.908V46.896H25.964V46.176C25.372 46.672 24.756 47.052 24.116 47.316C23.812 46.82 23.444 46.376 23.012 45.984C23.836 45.696 24.568 45.288 25.208 44.76H23.12V43.344H25.364V39.9H23.804V38.508H25.364V37.74H27.116V38.508H30.56V37.752H32.348V38.508H33.908V39.9H32.348V43.344H34.52V44.76H32.564C33.188 45.24 33.88 45.616 34.64 45.888C34.456 46.04 34.252 46.252 34.028 46.524C33.804 46.788 33.628 47.024 33.5 47.232C32.852 46.936 32.252 46.54 31.7 46.044V46.896H29.684V47.388H33.512V48.804H24.272ZM26.648 45.54H27.908V44.928H29.684V45.54H31.172C30.924 45.284 30.7 45.024 30.5 44.76H27.308C27.116 45.016 26.896 45.276 26.648 45.54ZM27.116 43.344H30.56V42.996H27.116V43.344ZM27.116 41.808H30.56V41.448H27.116V41.808ZM27.116 40.26H30.56V39.9H27.116V40.26ZM42.452 48.924C41.556 48.924 40.952 48.76 40.64 48.432C40.328 48.112 40.172 47.488 40.172 46.56V43.824L39.692 44.04L39.044 42.504L40.172 42.024V38.928H41.828V41.316L42.476 41.04V37.74H44.108V40.332L44.708 40.08H44.696L44.972 39.9L45.284 39.696L46.496 40.128L46.436 40.404C46.436 42.556 46.416 43.912 46.376 44.472C46.352 45.024 46.152 45.396 45.776 45.588C45.512 45.732 45.072 45.804 44.456 45.804C44.384 45.196 44.268 44.724 44.108 44.388V46.272H42.476V42.816L41.828 43.104V46.56C41.828 46.928 41.872 47.156 41.96 47.244C42.048 47.332 42.268 47.376 42.62 47.376H44.636C44.948 47.376 45.152 47.292 45.248 47.124C45.352 46.948 45.432 46.568 45.488 45.984C45.672 46.112 45.912 46.236 46.208 46.356C46.504 46.476 46.768 46.56 47 46.608C46.896 47.48 46.692 48.084 46.388 48.42C46.068 48.756 45.54 48.924 44.804 48.924H42.452ZM36.044 47.568L35.348 45.816C35.54 45.752 35.868 45.632 36.332 45.456C36.564 45.368 36.74 45.3 36.86 45.252V42.108H35.54V40.464H36.86V37.92H38.48V40.464H39.596V42.108H38.48V44.58L39.452 44.172L39.848 45.708C38.672 46.316 37.404 46.936 36.044 47.568ZM44.552 44.376C44.672 44.376 44.74 44.304 44.756 44.16C44.772 44.064 44.78 43.28 44.78 41.808L44.108 42.108V44.364C44.212 44.372 44.36 44.376 44.552 44.376Z" fill="#FFB516"/>
<rect x="2" y="2" width="66" height="66" rx="33" stroke="#FFB516" stroke-width="4"/>
</svg>
