<svg width="70" height="83" viewBox="0 0 70 83" fill="none" xmlns="http://www.w3.org/2000/svg">
<path d="M36.1622 80.987C35.6457 81.8817 34.3543 81.8817 33.8378 80.987L27.5019 70.013C26.9854 69.1183 27.6311 68 28.6641 68L41.3359 68C42.3689 68 43.0146 69.1183 42.4981 70.013L36.1622 80.987Z" fill="#FFB516"/>
<path d="M32.432 32.092C32.168 32.14 31.752 32.156 31.184 32.14C31.176 31.908 31.132 31.652 31.052 31.372C30.98 31.092 30.888 30.852 30.776 30.652C30.992 30.684 31.24 30.7 31.52 30.7C31.664 30.7 31.78 30.656 31.868 30.568C31.996 30.416 32.104 29.908 32.192 29.044H27.968V30.256H28.976V29.272H30.572V31.552H25.304V32.032H23.732V29.272H25.304V30.256H26.372V29.044H24.812V21.604H27.488C27.568 21.196 27.616 20.896 27.632 20.704L29.744 20.824C29.648 21.064 29.524 21.324 29.372 21.604H32.576V25.744H26.54V26.128H34.388V27.388H26.54V27.808H33.98C33.964 28.008 33.948 28.208 33.932 28.408C33.86 29.384 33.772 30.12 33.668 30.616C33.572 31.112 33.448 31.448 33.296 31.624C33.08 31.872 32.792 32.028 32.432 32.092ZM26.54 24.58H30.824V24.172H26.54V24.58ZM26.54 23.14H30.824V22.78H26.54V23.14ZM44.864 32.164C44.136 32.156 43.464 31.756 42.848 30.964C42.272 30.22 41.82 29.224 41.492 27.976H38.744V29.788C39.632 29.7 40.576 29.596 41.576 29.476L41.636 31.204C40.5 31.356 38.828 31.568 36.62 31.84C36.348 31.872 36.148 31.896 36.02 31.912L35.66 30.088C35.812 30.08 36.048 30.06 36.368 30.028C36.616 30.004 36.804 29.988 36.932 29.98V21.244H45.788V25.408H42.86C42.884 25.76 42.924 26.076 42.98 26.356H46.616V27.976H43.364C43.596 28.696 43.856 29.284 44.144 29.74C44.448 30.204 44.72 30.432 44.96 30.424C45.088 30.424 45.184 30.288 45.248 30.016C45.312 29.752 45.364 29.32 45.404 28.72C45.588 28.896 45.828 29.064 46.124 29.224C46.404 29.384 46.664 29.5 46.904 29.572C46.792 30.604 46.572 31.308 46.244 31.684C45.964 32.004 45.504 32.164 44.864 32.164ZM38.744 26.356H41.168C41.12 26.044 41.084 25.728 41.06 25.408H38.744V26.356ZM38.744 23.8H44.012V22.852H38.744V23.8ZM17.216 48.816V47.112H21.752V45.048H18.644V43.368H21.752V41.532H19.448C19.08 42.212 18.732 42.756 18.404 43.164C17.98 42.796 17.456 42.444 16.832 42.108C17.28 41.628 17.696 41 18.08 40.224C18.44 39.48 18.724 38.692 18.932 37.86L20.744 38.268C20.616 38.748 20.44 39.268 20.216 39.828H21.752V37.74H23.576V39.828H27.5V41.532H23.576V43.368H27.02V45.048H23.576V47.112H28.136V48.816H17.216ZM33.704 49.128V44.16H36.092V42.888H33.02V41.22H36.092V40.116C35.38 40.22 34.652 40.304 33.908 40.368C33.844 39.896 33.688 39.4 33.44 38.88C35.8 38.656 37.632 38.268 38.936 37.716L40.268 39.084C39.468 39.396 38.628 39.64 37.748 39.816V41.22H40.676V42.888H37.748V44.16H40.172V49.08H38.516V48.648H35.276V49.128H33.704ZM30.968 49.008L29.492 47.832C30.292 46.712 31.052 45.464 31.772 44.088L33.056 45.252C32.408 46.54 31.712 47.792 30.968 49.008ZM35.276 47.076H38.516V45.732H35.276V47.076ZM31.64 43.788C31.256 43.516 30.5 43.084 29.372 42.492L30.308 41.196C31.42 41.7 32.188 42.08 32.612 42.336L31.64 43.788ZM32.108 40.476C31.884 40.308 31.364 39.984 30.548 39.504C30.268 39.344 30.068 39.228 29.948 39.156L30.932 37.896C30.98 37.92 31.06 37.96 31.172 38.016C32.18 38.528 32.836 38.88 33.14 39.072L32.108 40.476ZM42.56 49.152V41.424H43.856C43.936 41.168 43.992 40.956 44.024 40.788L44.444 40.812C44.292 40.492 44.14 40.208 43.988 39.96C43.668 40.44 43.336 40.856 42.992 41.208C42.632 40.904 42.16 40.592 41.576 40.272C41.944 39.968 42.296 39.572 42.632 39.084C42.944 38.62 43.2 38.132 43.4 37.62L45.02 38.052C44.932 38.26 44.844 38.46 44.756 38.652H47.18V39.672C47.724 39.056 48.124 38.372 48.38 37.62L50.024 38.04C49.976 38.176 49.888 38.38 49.76 38.652H52.82V39.912H51.14C51.38 40.248 51.552 40.54 51.656 40.788L50.996 41.04H52.52V45.924C52.52 46.316 52.484 46.612 52.412 46.812C52.324 47.052 52.168 47.232 51.944 47.352C51.736 47.472 51.476 47.552 51.164 47.592C50.932 47.624 50.592 47.64 50.144 47.64C50.088 47.12 49.94 46.588 49.7 46.044C50.116 46.068 50.44 46.072 50.672 46.056C50.8 46.056 50.864 46 50.864 45.888V42.612H49.448V48.9H47.816V41.04H47.84C47.44 40.72 47.028 40.448 46.604 40.224C46.66 40.184 46.736 40.116 46.832 40.02C46.888 39.972 46.928 39.936 46.952 39.912H45.692C45.884 40.24 46.012 40.512 46.076 40.728L45.728 40.884L45.872 40.896C45.832 40.976 45.772 41.096 45.692 41.256C45.652 41.328 45.624 41.384 45.608 41.424H47.288V45.3H44.168V45.6H47.18V46.752H44.168V47.064H47.396V48.264H44.168V49.152H42.56ZM44.168 44.208H45.656V43.872H44.168V44.208ZM44.168 42.84H45.656V42.516H44.168V42.84ZM48.164 41.04H50.012C49.82 40.672 49.584 40.296 49.304 39.912H49.052C48.772 40.344 48.476 40.72 48.164 41.04Z" fill="#FFB516"/>
<rect x="2" y="2" width="66" height="66" rx="33" stroke="#FFB516" stroke-width="4"/>
</svg>
