<svg width="70" height="83" viewBox="0 0 70 83" fill="none" xmlns="http://www.w3.org/2000/svg">
<path d="M36.1622 80.987C35.6457 81.8817 34.3543 81.8817 33.8378 80.987L27.5019 70.013C26.9854 69.1183 27.6311 68 28.6641 68L41.3359 68C42.3689 68 43.0146 69.1183 42.4981 70.013L36.1622 80.987Z" fill="#FFB516"/>
<path d="M24.716 32.128V28.216C24.436 28.464 24.14 28.688 23.828 28.888C23.612 28.312 23.336 27.744 23 27.184C24.128 26.472 25.084 25.4 25.868 23.968H23.432V22.3H26.636C26.812 21.844 26.976 21.32 27.128 20.728L28.952 21.16C28.888 21.36 28.788 21.66 28.652 22.06C28.612 22.164 28.584 22.244 28.568 22.3H34.244V23.968H27.86C27.452 24.832 26.992 25.612 26.48 26.308V32.128H24.716ZM26.996 31.828V30.22H29.756V27.844H27.452V26.236H29.756V24.424H31.52V26.236H33.728V27.844H31.52V30.22H34.184V31.828H26.996ZM42.452 31.924C41.556 31.924 40.952 31.76 40.64 31.432C40.328 31.112 40.172 30.488 40.172 29.56V26.824L39.692 27.04L39.044 25.504L40.172 25.024V21.928H41.828V24.316L42.476 24.04V20.74H44.108V23.332L44.708 23.08H44.696L44.972 22.9L45.284 22.696L46.496 23.128L46.436 23.404C46.436 25.556 46.416 26.912 46.376 27.472C46.352 28.024 46.152 28.396 45.776 28.588C45.512 28.732 45.072 28.804 44.456 28.804C44.384 28.196 44.268 27.724 44.108 27.388V29.272H42.476V25.816L41.828 26.104V29.56C41.828 29.928 41.872 30.156 41.96 30.244C42.048 30.332 42.268 30.376 42.62 30.376H44.636C44.948 30.376 45.152 30.292 45.248 30.124C45.352 29.948 45.432 29.568 45.488 28.984C45.672 29.112 45.912 29.236 46.208 29.356C46.504 29.476 46.768 29.56 47 29.608C46.896 30.48 46.692 31.084 46.388 31.42C46.068 31.756 45.54 31.924 44.804 31.924H42.452ZM36.044 30.568L35.348 28.816C35.54 28.752 35.868 28.632 36.332 28.456C36.564 28.368 36.74 28.3 36.86 28.252V25.108H35.54V23.464H36.86V20.92H38.48V23.464H39.596V25.108H38.48V27.58L39.452 27.172L39.848 28.708C38.672 29.316 37.404 29.936 36.044 30.568ZM44.552 27.376C44.672 27.376 44.74 27.304 44.756 27.16C44.772 27.064 44.78 26.28 44.78 24.808L44.108 25.108V27.364C44.212 27.372 44.36 27.376 44.552 27.376ZM29.564 49.176C29.404 48.768 29.128 48.316 28.736 47.82C28.72 48.1 28.676 48.32 28.604 48.48C28.524 48.656 28.392 48.796 28.208 48.9C27.896 49.068 27.356 49.152 26.588 49.152C26.532 48.696 26.384 48.224 26.144 47.736C26.488 47.76 26.76 47.764 26.96 47.748C27.072 47.748 27.128 47.696 27.128 47.592V47.376H25.424V49.14H23.828V43.044H28.676C28.772 42.9 28.852 42.76 28.916 42.624H23.144V41.184H24.32V40.404H23.312V38.988H24.32V37.908H25.892V38.988H26.66V37.908H28.256V38.988H29.264V40.404H28.256V41.184H29.144V42.12C29.584 41.048 29.888 39.584 30.056 37.728L31.76 37.968C31.664 38.72 31.564 39.368 31.46 39.912H34.52V41.52H33.764C33.548 43.272 33.184 44.7 32.672 45.804C33.208 46.604 33.868 47.212 34.652 47.628C34.46 47.796 34.24 48.032 33.992 48.336C33.76 48.632 33.576 48.904 33.44 49.152C32.768 48.72 32.18 48.144 31.676 47.424C31.132 48.112 30.428 48.696 29.564 49.176ZM28.736 47.58C29.584 47.14 30.268 46.528 30.788 45.744C30.548 45.136 30.348 44.52 30.188 43.896C30.044 44.192 29.868 44.48 29.66 44.76C29.452 44.352 29.144 43.888 28.736 43.368V47.58ZM25.424 46.128H27.128V45.828H25.424V46.128ZM25.424 44.616H27.128V44.328H25.424V44.616ZM31.664 43.704C31.848 43.024 31.976 42.296 32.048 41.52H31.124C31.26 42.296 31.44 43.024 31.664 43.704ZM25.892 41.184H26.66V40.404H25.892V41.184ZM40.412 49.14V47.028C39.372 47.876 38.128 48.484 36.68 48.852C36.568 48.636 36.404 48.38 36.188 48.084C35.972 47.796 35.776 47.564 35.6 47.388C36.608 47.212 37.532 46.932 38.372 46.548C39.228 46.156 39.908 45.696 40.412 45.168V44.424H38.48V46.428H36.62V42.96H40.412V42.576H35.9V41.088H36.8C36.384 40.76 35.924 40.46 35.42 40.188C35.796 39.884 36.148 39.5 36.476 39.036C36.796 38.58 37.052 38.112 37.244 37.632L38.912 38.088C38.856 38.232 38.772 38.408 38.66 38.616H41.024V39.684C41.544 39.084 41.932 38.4 42.188 37.632L43.892 38.052C43.82 38.252 43.744 38.44 43.664 38.616H46.724V40.056H45.056C45.224 40.344 45.34 40.568 45.404 40.728L44.276 41.088H46.496V42.576H42.296V42.96H45.932V44.904C45.932 45.264 45.888 45.536 45.8 45.72C45.704 45.92 45.536 46.068 45.296 46.164C44.984 46.292 44.548 46.364 43.988 46.38C44.924 46.78 45.916 47.06 46.964 47.22C46.788 47.404 46.588 47.648 46.364 47.952C46.148 48.256 45.98 48.524 45.86 48.756C44.588 48.452 43.4 47.888 42.296 47.064V49.14H40.412ZM43.424 46.104C43.304 45.776 43.144 45.424 42.944 45.048C43.136 45.072 43.436 45.08 43.844 45.072C43.884 45.072 43.912 45.072 43.928 45.072C44.064 45.072 44.132 45.016 44.132 44.904V44.424H42.296V45.396C42.608 45.644 42.984 45.88 43.424 46.104ZM36.932 41.088H38.348C38.196 40.728 38.02 40.384 37.82 40.056H37.796C37.46 40.504 37.172 40.848 36.932 41.088ZM39.056 41.088H40.412V40.5H41.036C40.94 40.436 40.8 40.352 40.616 40.248C40.568 40.224 40.532 40.204 40.508 40.188C40.524 40.172 40.548 40.152 40.58 40.128C40.62 40.096 40.648 40.072 40.664 40.056H39.584C39.76 40.368 39.876 40.6 39.932 40.752L39.056 41.088ZM42.296 41.088H43.808C43.72 40.864 43.544 40.52 43.28 40.056H42.884C42.7 40.328 42.504 40.588 42.296 40.836V41.088Z" fill="#FFB516"/>
<rect x="2" y="2" width="66" height="66" rx="33" stroke="#FFB516" stroke-width="4"/>
</svg>
