<svg width="60" height="55" viewBox="0 0 60 55" fill="none" xmlns="http://www.w3.org/2000/svg">
<path d="M10.4 10C13.6667 16.6667 16.9334 16.6667 20.2 10C23.4667 16.6667 26.7334 16.6667 30 10C33.2667 16.6667 36.5333 16.6667 39.8 10C43.0667 16.6667 46.3334 16.6667 49.6 10" stroke="#003F78" stroke-width="2" stroke-linecap="round" stroke-linejoin="round"/>
<path d="M10.4 25C13.6667 31.6667 16.9334 31.6667 20.2 25C23.4667 31.6667 26.7334 31.6667 30 25C33.2667 31.6667 36.5333 31.6667 39.8 25C43.0667 31.6667 46.3334 31.6667 49.6 25" stroke="#003F78" stroke-width="2" stroke-linecap="round" stroke-linejoin="round"/>
<path d="M10.4 40C13.6667 46.6667 16.9334 46.6667 20.2 40C23.4667 46.6667 26.7334 46.6667 30 40C33.2667 46.6667 36.5333 46.6667 39.8 40C43.0667 46.6667 46.3334 46.6667 49.6 40" stroke="#003F78" stroke-width="2" stroke-linecap="round" stroke-linejoin="round"/>
</svg>
