<svg width="98" height="132" viewBox="0 0 98 132" fill="none" xmlns="http://www.w3.org/2000/svg">
<g clip-path="url(#clip0_309_2207)">
<mask id="mask0_309_2207" style="mask-type:luminance" maskUnits="userSpaceOnUse" x="17" y="72" width="3" height="9">
<path d="M17.58 72.0498L19.16 78.8899C19.23 79.1799 19.27 79.5898 19.37 80.0198L17.79 73.1699C17.66 72.7499 17.66 72.3798 17.58 72.0498Z" fill="white"/>
</mask>
<g mask="url(#mask0_309_2207)">
<path d="M17.58 72.0499L19.16 78.89C19.23 79.18 19.27 79.5899 19.37 80.0199L17.79 73.17C17.69 72.75 17.65 72.3399 17.58 72.0499Z" fill="#4199D6"/>
</g>
<mask id="mask1_309_2207" style="mask-type:luminance" maskUnits="userSpaceOnUse" x="2" y="85" width="5" height="11">
<path d="M4.78998 88.6099L6.37 95.46C6.06877 94.5854 5.48915 93.8336 4.71997 93.3198C4.23997 92.9498 4.00996 92.69 3.95996 92.47L2.37994 85.6299C2.37994 85.8499 2.65994 86.11 3.12994 86.48C3.90164 86.989 4.48489 87.7372 4.78998 88.6099Z" fill="white"/>
</mask>
<g mask="url(#mask1_309_2207)">
<path d="M4.78998 88.61L6.37 95.4601C6.06877 94.5855 5.48915 93.8337 4.71997 93.3199C4.23997 92.9499 4.00996 92.6901 3.95996 92.4701L2.37994 85.63C2.37994 85.85 2.65994 86.1101 3.12994 86.4801C3.90164 86.9891 4.48489 87.7373 4.78998 88.61Z" fill="#4199D6"/>
</g>
<mask id="mask2_309_2207" style="mask-type:luminance" maskUnits="userSpaceOnUse" x="0" y="95" width="11" height="12">
<path d="M2.14996 102.5L0.569946 95.6499C0.669858 95.9194 0.815359 96.1697 1 96.3899C1.77 97.4699 1.90999 97.2598 2.42999 98.5198C2.78999 99.3898 2.85999 100.01 3.42999 100.11C3.7744 100.139 4.12014 100.073 4.42999 99.9199C5.61458 99.3788 6.88974 99.0634 8.19 98.99C8.34635 98.9757 8.50363 98.9757 8.65997 98.99L9.15997 99.0999L10.74 105.94L10.24 105.83C10.0852 105.799 9.92782 105.782 9.76996 105.78C8.47045 105.858 7.1962 106.174 6.00995 106.71C5.70165 106.868 5.35459 106.934 5.00995 106.9C4.49995 106.81 4.42 106.18 4.06 105.31C3.54 104.05 3.39994 104.31 2.62994 103.18C2.43473 102.98 2.27271 102.751 2.14996 102.5Z" fill="white"/>
</mask>
<g mask="url(#mask2_309_2207)">
<path d="M9.09998 99.15L10.68 105.99L10.18 105.88H9.98999L8.40997 99.0399H8.59998L9.09998 99.15Z" fill="#4199D6"/>
<path d="M8.40997 99.0099L9.98999 105.85H9.77997L8.19995 99.0099H8.40997Z" fill="#4199D6"/>
<path d="M8.19995 98.9901L9.77997 105.83H9.57996L7.98999 98.9901H8.19995Z" fill="#4199D6"/>
<path d="M7.98999 98.9901L9.57996 105.83H9.21997L7.63995 98.9901H7.98999Z" fill="#4199D6"/>
<path d="M7.65997 99.0099L9.23999 105.85L8.87994 105.9L7.29999 99.0499H7.65997" fill="#4199D6"/>
<path d="M7.27997 99.0499L8.85999 105.9L8.46997 105.96L6.88995 99.12L7.27997 99.0499Z" fill="#4199D6"/>
<path d="M6.88995 99.12L8.46997 105.96L8.01996 106.07L6.44 99.2201L6.88995 99.12Z" fill="#4199D6"/>
<path d="M6.44 99.2201L8.01996 106.07C7.82996 106.07 7.64 106.17 7.44 106.23L5.85999 99.38L6.44 99.2101" fill="#4199D6"/>
<path d="M5.85999 99.38L7.44 106.22C7.16 106.31 6.87 106.4 6.56 106.52L4.97998 99.67C5.28998 99.56 5.57999 99.46 5.85999 99.38Z" fill="#4199D6"/>
<path d="M4.97998 99.6801L6.56 106.53L5.94995 106.76H5.81995L4.23999 99.92L4.37 99.87L4.97998 99.63" fill="#4199D6"/>
<path d="M4.23999 99.9701L5.81995 106.81L5.62994 106.87L4.04999 100.03L4.23999 99.9701Z" fill="#4199D6"/>
<path d="M4.04999 100.03L5.62994 106.87H5.48999L3.90997 100.03H4.04999Z" fill="#4199D6"/>
<path d="M3.90997 100.07L5.48999 106.91H5.37994L3.79999 100.07H3.90997Z" fill="#4199D6"/>
<path d="M3.79999 100.1L5.37994 106.94H5.28998L3.70996 100.1H3.79999Z" fill="#4199D6"/>
<path d="M3.70996 100.11L5.28998 106.95H5.20996L3.62994 100.11H3.70996Z" fill="#4199D6"/>
<path d="M3.65997 100.12L5.23999 106.96H5.16998L3.58997 100.11H3.65997" fill="#4199D6"/>
<path d="M3.56 100.12L5.13995 106.97H5.06995L3.48999 100.12C3.48999 100.12 3.49 100.12 3.56 100.12Z" fill="#4199D6"/>
<path d="M3.48999 100.12L5.06995 106.97H5L3.41998 100.13H3.48999" fill="#4199D6"/>
<path d="M3.41998 100.12L5 106.96C4.49 106.87 4.40999 106.24 4.04999 105.37C3.52999 104.11 3.39 104.37 2.62 103.24C2.43801 103.022 2.29278 102.775 2.19 102.51L0.609985 95.66C0.709897 95.9295 0.855337 96.1798 1.03998 96.4C1.80998 97.48 1.94997 97.2699 2.46997 98.5299C2.82997 99.3999 2.89997 100.02 3.46997 100.12" fill="#4199D6"/>
</g>
<mask id="mask3_309_2207" style="mask-type:luminance" maskUnits="userSpaceOnUse" x="9" y="83" width="19" height="24">
<path d="M26.39 83.8098L27.97 90.6499C28.16 91.4799 24.88 91.6498 23.46 92.0398C22.04 92.4298 22.2 93.1598 21.65 93.7598C21.4515 93.9356 21.2091 94.0545 20.9485 94.1038C20.688 94.1531 20.419 94.1309 20.17 94.0398C19.6317 93.9294 19.1033 93.7756 18.59 93.5798L18.34 93.5098C17.04 93.2698 16.43 94.8899 14.93 95.8999C13.43 96.9099 13.2899 98.7999 13.0699 99.8499C12.8499 100.9 12.68 103.27 12.5 105.1C12.39 106.16 11.84 106.23 11.18 106.1L10.68 105.98L9.09998 99.1399L9.59998 99.2598C10.26 99.3798 10.81 99.3098 10.92 98.2598C11.1 96.4198 11.27 94.06 11.49 93C11.71 91.94 11.76 90.1398 13.35 89.0598C14.94 87.9798 15.4599 86.4199 16.7599 86.6699C16.8453 86.6852 16.929 86.7087 17.0099 86.74C17.5233 86.9358 18.0517 87.0896 18.59 87.2C18.839 87.2911 19.108 87.3132 19.3686 87.2639C19.6291 87.2146 19.8714 87.0957 20.0699 86.9199C20.6199 86.3199 20.4099 85.6199 21.8799 85.1899C23.3499 84.7599 26.58 84.6398 26.39 83.8098Z" fill="white"/>
</mask>
<g mask="url(#mask3_309_2207)">
<path d="M26.4 83.86L27.98 90.7001L26.4 83.85" fill="#4199D6"/>
<path d="M26.4 83.89L27.98 90.7401L26.4 83.9" fill="#4199D6"/>
<path d="M26.37 84.0099L27.95 90.85C27.9105 90.9183 27.8557 90.9764 27.79 91.0199L26.21 84.1801C26.2757 84.1365 26.3305 84.0782 26.37 84.0099Z" fill="#4199D6"/>
<path d="M26.21 84.1801L27.79 91.0199L27.71 91.08L26.1299 84.2301H26.21" fill="#4199D6"/>
<path d="M26.1299 84.2301L27.71 91.08H27.62L26.04 84.2401L26.1299 84.1901" fill="#4199D6"/>
<path d="M26.04 84.2799L27.62 91.12L27.5099 91.1801L25.93 84.33H26.04" fill="#4199D6"/>
<path d="M25.93 84.38L27.5099 91.2301H27.37L25.79 84.39L25.93 84.33" fill="#4199D6"/>
<path d="M25.79 84.38L27.37 91.2201L27.18 91.2899L25.6 84.4401L25.79 84.38Z" fill="#4199D6"/>
<path d="M25.6 84.4501L27.18 91.2999L26.8799 91.38L25.3 84.5399L25.6 84.4501Z" fill="#4199D6"/>
<path d="M25.3 84.5399L26.8799 91.38L26.35 91.5001L24.77 84.65L25.3 84.5399Z" fill="#4199D6"/>
<path d="M24.77 84.65L26.35 91.5001C25.62 91.6401 24.78 91.75 24.1 91.89L22.52 85.0399C23.2 84.9099 24.04 84.8 24.77 84.65Z" fill="#4199D6"/>
<path d="M22.52 85.0399L24.1 91.89L23.65 91.9901L22.0699 85.14L22.52 85.0399Z" fill="#4199D6"/>
<path d="M22.0699 85.14L23.65 91.9901H23.46H23.39L21.81 85.14H21.8799H22.0699Z" fill="#4199D6"/>
<path d="M21.81 85.2101L23.39 92.0599L23.19 92.12L21.66 85.2799L21.86 85.2101" fill="#4199D6"/>
<path d="M21.66 85.2799L23.24 92.12L23.0699 92.1901L21.49 85.35L21.66 85.2799Z" fill="#4199D6"/>
<path d="M21.44 85.38L23.02 92.2201L22.87 92.2899L21.29 85.4501L21.44 85.38Z" fill="#4199D6"/>
<path d="M21.29 85.38L22.87 92.2201L22.73 92.2999L21.15 85.4601L21.29 85.38Z" fill="#4199D6"/>
<path d="M21.15 85.5001L22.73 92.34C22.6794 92.3675 22.6324 92.4012 22.59 92.4401L21.0099 85.59L21.15 85.5001Z" fill="#4199D6"/>
<path d="M21.0099 85.59L22.59 92.4401C22.05 92.8401 22.05 93.3299 21.65 93.7599C21.6109 93.8108 21.5636 93.8549 21.5099 93.89L19.93 87.0499C19.9813 87.0119 20.0283 86.9684 20.0699 86.92C20.4699 86.49 20.4699 85.99 21.0099 85.59Z" fill="#4199D6"/>
<path d="M19.93 87.0499L21.5099 93.89H21.44L19.86 87.0499H19.93Z" fill="#4199D6"/>
<path d="M19.86 87.1L21.44 93.9401H21.3799L19.8 87.1H19.86Z" fill="#4199D6"/>
<path d="M19.8 87.14L21.3799 93.9801H21.3199L19.74 87.14H19.8Z" fill="#4199D6"/>
<path d="M19.74 87.16L21.3199 94.0001H21.2599L19.66 87.1801H19.72" fill="#4199D6"/>
<path d="M19.66 87.1801L21.24 94.0299H21.19L19.61 87.1901" fill="#4199D6"/>
<path d="M19.66 87.2001L21.24 94.0399H21.18L19.6 87.2001H19.66Z" fill="#4199D6"/>
<path d="M19.5699 87.2201L21.15 94.0599H21.08L19.5 87.2101H19.5699" fill="#4199D6"/>
<path d="M19.5 87.2301L21.08 94.08H21.0099L19.43 87.2401H19.5" fill="#4199D6"/>
<path d="M19.43 87.2501L21.0099 94.09H20.92L19.34 87.2501H19.43Z" fill="#4199D6"/>
<path d="M19.34 87.2599L20.92 94.1H20.81L19.23 87.2599H19.34Z" fill="#4199D6"/>
<path d="M19.23 87.2599L20.81 94.1C20.7571 94.11 20.7028 94.11 20.65 94.1L19.0699 87.2599H19.23Z" fill="#4199D6"/>
<path d="M19.0699 87.2599L20.65 94.1H20.3799L18.8 87.2599H19.0699Z" fill="#4199D6"/>
<path d="M18.8 87.2401L20.3799 94.08H20.17C19.6317 93.9696 19.1033 93.8158 18.59 93.62L18.34 93.5499H18.28L16.7 86.7101H16.7599C16.8453 86.7254 16.929 86.7487 17.0099 86.7799C17.5233 86.9757 18.0517 87.1298 18.59 87.2401H18.8Z" fill="#4199D6"/>
<path d="M16.66 86.66L18.24 93.5001H18.1L16.52 86.65H16.66" fill="#4199D6"/>
<path d="M16.56 86.64L18.14 93.4901C18.1102 93.4851 18.0798 93.4851 18.05 93.4901L16.47 86.64H16.56Z" fill="#4199D6"/>
<path d="M16.47 86.64L18.05 93.4901H17.97L16.39 86.65H16.47" fill="#4199D6"/>
<path d="M16.39 86.65L17.97 93.4901H17.9L16.3199 86.65H16.39Z" fill="#4199D6"/>
<path d="M16.3199 86.66L17.9 93.5001H17.84L16.2599 86.66H16.3199Z" fill="#4199D6"/>
<path d="M16.2599 86.67L17.84 93.5099H17.77L16.19 86.67H16.2599Z" fill="#4199D6"/>
<path d="M16.19 86.6801L17.77 93.5199H17.7L16.12 86.6801H16.19Z" fill="#4199D6"/>
<path d="M16.12 86.7001L17.7 93.5399H17.64L16.06 86.6901H16.12" fill="#4199D6"/>
<path d="M16.06 86.7201L17.64 93.5699H17.56L15.98 86.7301H16.06" fill="#4199D6"/>
<path d="M15.98 86.7599L17.56 93.6H17.47L15.89 86.7501H15.98" fill="#4199D6"/>
<path d="M15.89 86.7899L17.47 93.64L17.35 93.7001L15.77 86.86L15.89 86.7899Z" fill="#4199D6"/>
<path d="M15.77 86.86L17.35 93.7001L17.18 93.8199L15.6 86.9801L15.77 86.86Z" fill="#4199D6"/>
<path d="M15.6 86.9801L17.18 93.8199C16.56 94.2799 15.99 95.1299 15.1 95.8199L13.52 88.9801C14.41 88.3301 14.98 87.4801 15.6 86.9801Z" fill="#4199D6"/>
<path d="M13.52 88.9401L15.1 95.7799L14.93 95.9L14.81 95.9901L13.23 89.15L13.35 89.0599L13.52 88.9401Z" fill="#4199D6"/>
<path d="M13.23 89.15L14.81 95.9901C14.3045 96.3667 13.9077 96.8704 13.66 97.4501L12.08 90.61C12.3243 90.0283 12.7217 89.5238 13.23 89.15Z" fill="#4199D6"/>
<path d="M12.08 90.61L13.66 97.4501C13.5635 97.6717 13.48 97.8987 13.41 98.13L11.83 91.2899C11.8984 91.058 11.9819 90.831 12.08 90.61Z" fill="#4199D6"/>
<path d="M11.83 91.2899L13.41 98.13C13.23 98.76 13.1699 99.38 13.0699 99.85C13.0699 99.97 13.07 100.12 13 100.28L11.42 93.4401C11.42 93.2801 11.42 93.1301 11.49 93.0001C11.59 92.5401 11.65 91.9199 11.83 91.2899Z" fill="#4199D6"/>
<path d="M11.42 93.4401L13 100.28C12.81 101.46 12.66 103.49 12.5 105.1C12.5056 105.146 12.5056 105.194 12.5 105.24L10.92 98.4C10.9248 98.3535 10.9248 98.3064 10.92 98.2599C11.08 96.6399 11.23 94.6201 11.42 93.4401Z" fill="#4199D6"/>
<path d="M10.9 98.38L12.48 105.22C12.4702 105.301 12.4535 105.382 12.43 105.46L10.85 98.62C10.8567 98.5401 10.8567 98.4599 10.85 98.38" fill="#4199D6"/>
<path d="M10.85 98.64L12.43 105.48C12.4144 105.546 12.3909 105.61 12.36 105.67L10.78 98.83C10.8093 98.769 10.8327 98.7054 10.85 98.64Z" fill="#4199D6"/>
<path d="M10.78 98.83L12.36 105.67C12.3077 105.803 12.2216 105.92 12.11 106.01L10.53 99.17C10.6415 99.0805 10.7277 98.9632 10.78 98.83Z" fill="#4199D6"/>
<path d="M10.53 99.17L12.11 106.01H12.06L10.48 99.17" fill="#4199D6"/>
<path d="M10.48 99.2001L12.06 106.04L10.48 99.1901H10.53" fill="#4199D6"/>
<path d="M10.39 99.2401L11.97 106.09L10.39 99.2501" fill="#4199D6"/>
<path d="M10.3199 99.2699L11.9 106.11L10.3199 99.2599" fill="#4199D6"/>
<path d="M10.23 99.2899L11.81 106.14L10.23 99.2999H10.28" fill="#4199D6"/>
<path d="M10.18 99.2999L11.7599 106.14H11.66L10.08 99.2999H10.14" fill="#4199D6"/>
<path d="M10.12 99.3099L11.7 106.15H11.66L10.08 99.3099H10.15" fill="#4199D6"/>
<path d="M10.05 99.3099L11.6299 106.15C11.5934 106.155 11.5565 106.155 11.52 106.15L9.94 99.3099H10.05Z" fill="#4199D6"/>
<path d="M9.94 99.3099L11.52 106.15H11.33L9.75 99.2999H9.94" fill="#4199D6"/>
<path d="M9.75 99.2899L11.33 106.14H11.18L10.68 106.02L9.09998 99.1801L9.59998 99.2999H9.75" fill="#4199D6"/>
</g>
<path d="M15.16 70.43C15.5 70.49 15.61 70.99 16.1 71.15C16.78 71.39 17.27 71.3598 17.48 71.7698C17.6315 72.6132 17.8728 73.4381 18.2 74.23C18.4598 74.6033 18.6872 74.998 18.88 75.41C19.5804 76.4183 20.4498 77.2978 21.45 78.0098C22.3767 78.6929 23.0573 79.6577 23.39 80.7598C23.5982 81.4457 24.0406 82.0369 24.64 82.43C25.13 82.8 25.95 82.83 26.36 83.73C26.77 84.63 23.36 84.73 21.88 85.19C20.4 85.65 20.62 86.32 20.07 86.92C19.8715 87.0958 19.6292 87.2147 19.3686 87.264C19.1081 87.3133 18.839 87.2912 18.59 87.2C18.0517 87.0897 17.5233 86.9359 17.01 86.7401C16.9291 86.7088 16.8453 86.6853 16.76 86.67C15.46 86.42 14.85 88.0499 13.35 89.0599C11.85 90.0699 11.71 91.9601 11.49 93.0001C11.27 94.0401 11.1 96.4198 10.92 98.2598C10.81 99.3198 10.26 99.3898 9.59999 99.2598L9.09999 99.14L8.59999 99.0298C8.44365 99.0156 8.28631 99.0156 8.12996 99.0298C6.8297 99.1033 5.5546 99.4189 4.37001 99.96C4.06017 100.113 3.71442 100.179 3.37001 100.15C2.85001 100.05 2.78001 99.4299 2.37001 98.5599C1.85001 97.2999 1.71002 97.56 0.940022 96.43C0.170022 95.3 0.25001 95.43 2.49001 93.43C4.73001 91.43 4.20998 90.74 4.64998 89.7C5.08998 88.66 4.36997 87.5298 3.06997 86.5298C1.76997 85.5298 2.31001 85.34 3.24001 84.46C4.28061 83.2008 5.15446 81.8126 5.83999 80.3299C6.26858 79.086 6.79699 77.8789 7.42 76.72C8.22 75.55 10 75.58 11.61 75.14C13.22 74.7 12.88 74.3498 13.19 73.0098C13.5 71.6698 13.68 71.19 14.54 70.65C14.6203 70.5692 14.7177 70.5074 14.825 70.4693C14.9323 70.4312 15.0468 70.4179 15.16 70.43Z" fill="#79C8FF"/>
<mask id="mask4_309_2207" style="mask-type:luminance" maskUnits="userSpaceOnUse" x="0" y="123" width="7" height="9">
<path d="M4.89996 123.27L6.47998 130.12C6.54998 130.45 5.71996 130.89 5.20996 131.12C4.59797 131.356 3.92971 131.404 3.28998 131.26L3.06 131.21C2.37 131.04 1.65997 130.71 1.58997 130.41L0.00994873 123.57C0.0799487 123.87 0.78998 124.19 1.47998 124.37L1.70996 124.42C2.3497 124.565 3.01795 124.516 3.62994 124.28C4.13994 124.04 4.96996 123.61 4.89996 123.27Z" fill="white"/>
</mask>
<g mask="url(#mask4_309_2207)">
<path d="M4.89996 123.27L6.47998 130.12L4.89996 123.28" fill="#4199D6"/>
<path d="M4.89996 123.38L6.47998 130.22L4.89996 123.37" fill="#4199D6"/>
<path d="M4.88995 123.38L6.46997 130.23L4.88995 123.39" fill="#4199D6"/>
<path d="M4.87994 123.38L6.45996 130.22C6.38162 130.357 6.27195 130.473 6.13995 130.56L4.56 123.72C4.692 123.634 4.8016 123.517 4.87994 123.38Z" fill="#4199D6"/>
<path d="M4.56 123.76L6.13995 130.6L5.87994 130.77L4.29999 123.93L4.56 123.76Z" fill="#4199D6"/>
<path d="M4.29999 123.93L5.87994 130.77C5.75994 130.85 5.63 130.91 5.5 130.98L3.91998 124.14L4.29999 123.93Z" fill="#4199D6"/>
<path d="M3.91998 124.14L5.5 130.98L5.20996 131.12H5.14996L3.56995 124.28H3.62994L3.91998 124.14Z" fill="#4199D6"/>
<path d="M3.56995 124.3L5.14996 131.14H5.04999L3.46997 124.3H3.56995Z" fill="#4199D6"/>
<path d="M3.46997 124.38L5.04999 131.22H4.94995L3.37 124.38H3.46997Z" fill="#4199D6"/>
<path d="M3.37 124.38L4.94995 131.22H4.82996L3.25 124.38H3.37Z" fill="#4199D6"/>
<path d="M3.25 124.38L4.82996 131.22H4.69995L3.12 124.38H3.25Z" fill="#4199D6"/>
<path d="M3.12 124.44L4.69995 131.28H4.56L2.97998 124.43H3.12" fill="#4199D6"/>
<path d="M2.97998 124.46L4.56 131.31H4.37994L2.79999 124.46H2.97998Z" fill="#4199D6"/>
<path d="M2.79999 124.48L4.37994 131.33H4.16998L2.58997 124.49H2.79999" fill="#4199D6"/>
<path d="M2.58997 124.5L4.16998 131.34H3.89996L2.31995 124.5H2.58997Z" fill="#4199D6"/>
<path d="M2.31995 124.49L3.89996 131.33H3.51996L1.94 124.49H2.31995Z" fill="#4199D6"/>
<path d="M1.94 124.46L3.51996 131.3H3.28998L3.06 131.25C2.37 131.08 1.65997 130.75 1.58997 130.45L0.00994873 123.61C0.0799487 123.91 0.78998 124.23 1.47998 124.41L1.70996 124.46H1.94Z" fill="#4199D6"/>
</g>
<path d="M2.98997 122.01C3.15647 122.063 3.30754 122.155 3.42997 122.28C3.90957 122.534 4.37071 122.821 4.80997 123.14C5.21997 123.48 4.20992 124.01 3.62992 124.28C3.01792 124.516 2.34967 124.565 1.70994 124.42L1.47996 124.37C0.749956 124.18 -0.0100244 123.82 -2.44451e-05 123.52C0.00997555 123.22 0.999978 123.06 1.93998 122.44C2.48998 122.07 2.76997 121.97 2.98997 122.01Z" fill="#79C8FF"/>
<mask id="mask5_309_2207" style="mask-type:luminance" maskUnits="userSpaceOnUse" x="81" y="1" width="5" height="11">
<path d="M83.5 4.18994L85.08 11.0298C84.7557 10.2692 84.2172 9.61963 83.53 9.15991C83.3605 9.05265 83.2334 8.89019 83.17 8.69995L81.59 1.84985C81.6498 2.0446 81.7775 2.21136 81.95 2.31982C82.6371 2.77954 83.1757 3.4294 83.5 4.18994Z" fill="white"/>
</mask>
<g mask="url(#mask5_309_2207)">
<path d="M83.5 4.19006L85.08 11.0299C84.7557 10.2694 84.2172 9.61975 83.53 9.16003C83.3606 9.05277 83.2334 8.89031 83.17 8.70007L81.59 1.84998C81.6498 2.04472 81.7775 2.21148 81.95 2.31995C82.6372 2.77966 83.1758 3.42953 83.5 4.19006Z" fill="#4199D6"/>
</g>
<mask id="mask6_309_2207" style="mask-type:luminance" maskUnits="userSpaceOnUse" x="81" y="7" width="7" height="11">
<path d="M85.86 10.1799L87.44 17.0198C87.4194 16.8998 87.3858 16.7826 87.34 16.6699C86.95 15.4999 86.86 15.1299 85.53 14.6699C84.43 14.2899 83.53 14.1899 83.41 13.8699L81.83 7.02979C81.9 7.34979 82.83 7.43983 83.95 7.82983C85.28 8.29983 85.3699 8.66983 85.7599 9.82983C85.8012 9.9441 85.8346 10.0611 85.86 10.1799Z" fill="white"/>
</mask>
<g mask="url(#mask6_309_2207)">
<path d="M85.86 10.1801L87.44 17.0199C87.4194 16.9 87.3858 16.7828 87.34 16.67C86.95 15.5 86.86 15.13 85.53 14.67C84.43 14.29 83.53 14.19 83.41 13.87L81.83 7.02991C81.9 7.34991 82.83 7.43996 83.95 7.82996C85.28 8.29996 85.37 8.66996 85.76 9.82996C85.8012 9.94422 85.8347 10.0613 85.86 10.1801Z" fill="#4199D6"/>
</g>
<mask id="mask7_309_2207" style="mask-type:luminance" maskUnits="userSpaceOnUse" x="88" y="2" width="10" height="15">
<path d="M95.99 2.37988L97.5699 9.21997C97.6299 9.46997 96.5699 10.0499 96.5699 10.5999C96.5561 11.0886 96.3896 11.5607 96.0936 11.95C95.7977 12.3392 95.3872 12.6258 94.92 12.7698C93.82 13.1398 94.01 13.2999 93.67 13.9399C93.33 14.5799 92.77 14.5999 91.44 14.8699C90.11 15.1399 90.38 15.5898 90.05 16.3198C90.0017 16.4488 90.0017 16.591 90.05 16.72L88.47 9.87988C88.4376 9.74161 88.4553 9.59641 88.52 9.46997C88.85 8.74997 88.58 8.30979 89.91 8.02979C91.24 7.74978 91.81 7.72985 92.14 7.09985C92.47 6.46985 92.29 6.28993 93.39 5.92993C93.8588 5.7854 94.2704 5.49715 94.5665 5.10596C94.8626 4.71476 95.0282 4.24047 95.04 3.75C95.01 3.16 96.05 2.57988 95.99 2.37988Z" fill="white"/>
</mask>
<g mask="url(#mask7_309_2207)">
<path d="M95.99 2.33L97.57 9.17V9.18L95.99 2.34V2.33Z" fill="#4199D6"/>
<path d="M95.99 2.34L97.57 9.18V9.19L95.99 2.35V2.34Z" fill="#4199D6"/>
<path d="M95.99 2.35001L97.57 9.19001V9.20001L95.99 2.36001V2.35001Z" fill="#4199D6"/>
<path d="M95.99 2.38L97.57 9.2301L95.99 2.39001" fill="#4199D6"/>
<path d="M95.98 2.38L97.56 9.22009C97.45 9.46009 96.86 9.8599 96.67 10.2699L95.09 3.42004C95.28 3.01004 95.87 2.62004 95.98 2.42004" fill="#4199D6"/>
<path d="M95.09 3.45007L96.67 10.2999V10.39L95.09 3.54993C95.0917 3.51661 95.0917 3.48339 95.09 3.45007Z" fill="#4199D6"/>
<path d="M95.05 3.54993L96.66 10.38C96.66 10.38 96.66 10.3801 96.66 10.4501L95.08 3.59998C95.08 3.59998 95.08 3.59992 95.08 3.53992" fill="#4199D6"/>
<path d="M95.04 3.60999L96.62 10.4601C96.6191 10.4767 96.6191 10.4932 96.62 10.5099L95.04 3.66003C95.041 3.64338 95.041 3.62664 95.04 3.60999Z" fill="#4199D6"/>
<path d="M95.03 3.66003L96.61 10.5099C96.6199 10.5527 96.6199 10.5972 96.61 10.64L95.03 3.79993C95.04 3.7538 95.04 3.70616 95.03 3.66003Z" fill="#4199D6"/>
<path d="M95.03 3.83997L96.61 10.6801C96.6154 10.7433 96.6154 10.8068 96.61 10.87L95.03 4.02991C95.0349 3.96667 95.0349 3.9032 95.03 3.83997Z" fill="#4199D6"/>
<path d="M95.01 4.02991L96.59 10.87C96.5957 10.9466 96.5957 11.0234 96.59 11.1L95.01 4.25989C95.0314 4.18433 95.0482 4.10754 95.06 4.02991" fill="#4199D6"/>
<path d="M94.96 4.25989L96.54 11.1C96.5172 11.2 96.4837 11.2972 96.44 11.39L94.86 4.54993C94.9037 4.45715 94.9372 4.35988 94.96 4.25989Z" fill="#4199D6"/>
<path d="M94.86 4.54993L96.44 11.39C96.2704 11.7877 95.9976 12.1329 95.65 12.39L94.07 5.54993C94.4176 5.29281 94.6903 4.94761 94.86 4.54993Z" fill="#4199D6"/>
<path d="M94.07 5.5199L95.66 12.38L95.47 12.5099L93.89 5.67004L94.08 5.53992" fill="#4199D6"/>
<path d="M93.88 5.65002L95.46 12.4901L95.3 12.58L93.72 5.74011L93.88 5.65002Z" fill="#4199D6"/>
<path d="M93.72 5.74011L95.3 12.58L95.16 12.64L93.58 5.79993L93.72 5.74011Z" fill="#4199D6"/>
<path d="M93.58 5.79993L95.16 12.64L95.03 12.7001L93.45 5.84998H93.58" fill="#4199D6"/>
<path d="M93.45 5.84998L95.03 12.7001H94.96L94.74 12.7799L93.16 5.93005L93.38 5.85999H93.45" fill="#4199D6"/>
<path d="M93.16 5.95007L94.74 12.7999L94.53 12.88L92.95 6.03992L93.16 5.95007Z" fill="#4199D6"/>
<path d="M92.95 6.03992L94.53 12.88C94.4805 12.8972 94.4335 12.9208 94.39 12.9501L92.81 6.09998L92.95 6.03992Z" fill="#4199D6"/>
<path d="M92.81 6.09998L94.39 12.9501H94.29L92.71 6.10999L92.81 6.04993" fill="#4199D6"/>
<path d="M92.71 6.16003L94.29 13.0001L94.2 13.0599L92.62 6.22009L92.71 6.16003Z" fill="#4199D6"/>
<path d="M92.66 6.22009L94.24 13.0599C94.1202 13.1568 94.0243 13.2801 93.96 13.42L92.38 6.57996C92.4443 6.43999 92.5402 6.31692 92.66 6.22009Z" fill="#4199D6"/>
<path d="M92.34 6.57996L93.92 13.42C93.8883 13.5087 93.8516 13.5955 93.81 13.6801L92.23 6.83997C92.2716 6.75545 92.3083 6.66863 92.34 6.57996Z" fill="#4199D6"/>
<path d="M92.23 6.83997L93.81 13.6801C93.785 13.7537 93.7514 13.8241 93.71 13.89C93.6366 14.0441 93.5268 14.1778 93.39 14.2799L91.81 7.44006C91.9445 7.33559 92.0538 7.20219 92.13 7.04993C92.1676 6.98205 92.201 6.91195 92.23 6.83997Z" fill="#4199D6"/>
<path d="M91.81 7.44006L93.39 14.2799L93.29 14.35L91.71 7.50012L91.81 7.44006Z" fill="#4199D6"/>
<path d="M91.71 7.50012L93.29 14.35H93.21L91.63 7.50989L91.71 7.46008" fill="#4199D6"/>
<path d="M91.66 7.54993L93.24 14.39H93.15L91.57 7.54993H91.66Z" fill="#4199D6"/>
<path d="M91.54 7.58997L93.12 14.4301H93.02L91.44 7.58997H91.54Z" fill="#4199D6"/>
<path d="M91.44 7.63L93.02 14.4701H92.89L91.31 7.63L91.44 7.57996" fill="#4199D6"/>
<path d="M91.31 7.68005L92.89 14.5199L92.69 14.5699L91.11 7.7301H91.31" fill="#4199D6"/>
<path d="M91.11 7.7301L92.69 14.5699L92.11 14.7001L90.53 7.84998L91.11 7.7301Z" fill="#4199D6"/>
<path d="M90.53 7.84998L92.11 14.7001L91.8 14.7599L90.22 7.92004L90.53 7.84998Z" fill="#4199D6"/>
<path d="M90.22 7.92004L91.8 14.7599L91.48 14.8199H91.28L89.7 7.9801L89.9 7.93005L90.22 7.87" fill="#4199D6"/>
<path d="M89.66 8.02991L91.24 14.87L91.07 14.92L89.49 8.06995H89.66" fill="#4199D6"/>
<path d="M89.53 8.06995L91.11 14.92H90.98L89.4 8.07996H89.53" fill="#4199D6"/>
<path d="M89.4 8.12L90.98 14.9601H90.87L89.29 8.12H89.4Z" fill="#4199D6"/>
<path d="M89.29 8.16003L90.87 15.0001H90.78L89.2 8.16003H89.29Z" fill="#4199D6"/>
<path d="M89.2 8.20007L90.78 15.0399L90.7 15.09L89.12 8.25012H89.2" fill="#4199D6"/>
<path d="M89.12 8.25012L90.7 15.09L90.62 15.14L89.04 8.29993L89.12 8.25012Z" fill="#4199D6"/>
<path d="M89.04 8.29993L90.62 15.14C90.5052 15.2245 90.4153 15.3386 90.36 15.4701L88.78 8.63C88.8353 8.49855 88.9251 8.38444 89.04 8.29993Z" fill="#4199D6"/>
<path d="M88.78 8.63L90.36 15.4701C90.3207 15.5646 90.2873 15.6612 90.26 15.7599L88.68 8.92004C88.7073 8.8214 88.7407 8.72451 88.78 8.63Z" fill="#4199D6"/>
<path d="M88.66 8.97009L90.24 15.8099C90.199 15.9595 90.1488 16.1066 90.09 16.2501L88.51 9.41003C88.5688 9.26653 88.6189 9.11965 88.66 8.97009Z" fill="#4199D6"/>
<path d="M88.51 9.43005L90.09 16.2699C90.0862 16.2998 90.0862 16.3301 90.09 16.36L88.51 9.5199C88.5062 9.49002 88.5062 9.45994 88.51 9.43005Z" fill="#4199D6"/>
<path d="M88.47 9.5199L90.05 16.36C90.05 16.36 90.05 16.4201 90.05 16.4401L88.47 9.59998C88.47 9.59998 88.47 9.5999 88.47 9.5199Z" fill="#4199D6"/>
<path d="M88.46 9.59998L90.04 16.4401C90.0345 16.4631 90.0345 16.4869 90.04 16.5099L88.46 9.67004C88.4545 9.64704 88.4545 9.62298 88.46 9.59998Z" fill="#4199D6"/>
<path d="M88.45 9.67004L90.03 16.5099V16.5699L88.45 9.7301V9.67004Z" fill="#4199D6"/>
<path d="M88.45 9.7301L90.03 16.5699C90.0254 16.5897 90.0254 16.6103 90.03 16.63L88.45 9.78992C88.4453 9.77019 88.4453 9.74983 88.45 9.7301Z" fill="#4199D6"/>
</g>
<mask id="mask8_309_2207" style="mask-type:luminance" maskUnits="userSpaceOnUse" x="86" y="11" width="6" height="9">
<path d="M89.66 11.5298L91.24 18.3699C91.4 19.0599 90.44 19.5898 90.08 19.5198C90.0689 19.5245 90.057 19.5269 90.045 19.5269C90.033 19.5269 90.021 19.5245 90.0099 19.5198C89.3782 19.3022 88.7292 19.1383 88.0699 19.0298C87.9552 18.9981 87.8527 18.9326 87.776 18.8416C87.6993 18.7505 87.6518 18.6382 87.64 18.5198L86.06 11.6699C86.069 11.7893 86.1154 11.9028 86.1926 11.9944C86.2698 12.0859 86.3738 12.1509 86.49 12.1799C87.1498 12.2909 87.7988 12.4582 88.43 12.6799H88.5C88.87 12.7499 89.83 12.2198 89.66 11.5298Z" fill="white"/>
</mask>
<g mask="url(#mask8_309_2207)">
<path d="M89.66 11.5699L91.24 18.41V18.4801L89.66 11.64V11.5699Z" fill="#4199D6"/>
<path d="M89.66 11.64L91.24 18.4801C91.2441 18.5033 91.2441 18.5268 91.24 18.5499L89.65 11.7101C89.6547 11.699 89.6571 11.6869 89.6571 11.6749C89.6571 11.6629 89.6547 11.6511 89.65 11.64" fill="#4199D6"/>
<path d="M89.66 11.7101L91.25 18.5499C91.2451 18.5764 91.2451 18.6036 91.25 18.63L89.67 11.7899V11.7101" fill="#4199D6"/>
<path d="M89.66 11.7899L91.24 18.63C91.24 18.63 91.24 18.6901 91.24 18.7101L89.66 11.87C89.66 11.87 89.66 11.8699 89.66 11.7899Z" fill="#4199D6"/>
<path d="M89.66 11.87L91.24 18.7101C91.24 18.7101 91.24 18.7899 91.24 18.8199L89.66 11.9801C89.66 11.9801 89.66 11.91 89.66 11.87Z" fill="#4199D6"/>
<path d="M89.66 11.9801L91.24 18.8199C91.1531 18.9967 91.0223 19.1482 90.86 19.2599L89.28 12.42C89.44 12.3059 89.5703 12.155 89.66 11.9801Z" fill="#4199D6"/>
<path d="M89.24 12.38L90.82 19.2201L90.7 19.3099L89.12 12.4601L89.24 12.38Z" fill="#4199D6"/>
<path d="M89.12 12.5001L90.66 19.38L90.56 19.4301L88.98 12.59L89.08 12.5299" fill="#4199D6"/>
<path d="M89.02 12.5599L90.6 19.4H90.52L88.94 12.5599H89.02Z" fill="#4199D6"/>
<path d="M88.94 12.6L90.52 19.4401H90.45L88.87 12.6H88.94Z" fill="#4199D6"/>
<path d="M88.87 12.63L90.45 19.4701H90.38L88.8 12.63H88.87Z" fill="#4199D6"/>
<path d="M88.8 12.65L90.38 19.4901H90.33L88.75 12.65" fill="#4199D6"/>
<path d="M88.71 12.67L90.29 19.5099L88.66 12.6801" fill="#4199D6"/>
<path d="M88.66 12.6801L90.24 19.5199L88.66 12.67" fill="#4199D6"/>
<path d="M88.56 12.6801L90.14 19.5299L88.55 12.6901" fill="#4199D6"/>
<path d="M88.52 12.6801L90.11 19.5199C90.0989 19.5246 90.087 19.527 90.075 19.527C90.063 19.527 90.0511 19.5246 90.04 19.5199C89.4083 19.3023 88.7593 19.1384 88.1 19.0299C87.9852 18.9982 87.8827 18.9327 87.806 18.8417C87.7293 18.7507 87.6819 18.6384 87.67 18.5199L86.09 11.67C86.099 11.7894 86.1454 11.903 86.2226 11.9945C86.2998 12.0861 86.4038 12.151 86.52 12.1801C87.1798 12.291 87.8288 12.4583 88.46 12.6801H88.53" fill="#4199D6"/>
</g>
<path d="M95.81 2.21008C96.51 2.35008 95.01 3.05007 95.03 3.70007C95.0182 4.19054 94.8526 4.66483 94.5565 5.05602C94.2604 5.44722 93.8488 5.73547 93.38 5.88C92.28 6.24 92.47 6.40992 92.13 7.04992C91.79 7.68992 91.23 7.7101 89.9 7.9801C88.57 8.2501 88.84 8.70004 88.51 9.42004C88.18 10.14 89.26 10.58 89.62 11.42C89.98 12.26 88.9 12.7801 88.51 12.7101H88.4401C87.8089 12.4883 87.1598 12.321 86.5 12.2101C85.81 12.0401 86.16 11.05 85.76 9.89001C85.36 8.73001 85.28 8.35001 83.95 7.89001C82.62 7.43001 81.5 7.39001 81.95 6.89001C82.4 6.39001 83.07 5.52001 83.48 4.89001C83.89 4.26001 82.95 3.22008 82 2.46008C81.05 1.70008 82.17 1.27008 82.72 0.460076C82.7951 0.334654 82.9086 0.236618 83.0437 0.180779C83.1788 0.12494 83.3283 0.114211 83.47 0.150017C83.97 0.250017 84.58 0.67991 85.2 0.78991L87.79 1.26989C89.19 1.53989 90.79 1.84991 91.58 2.03991C92.37 2.22991 92.58 2.30999 92.9 2.36999C93.6267 2.46901 94.3634 2.46901 95.09 2.36999C95.3242 2.29331 95.5654 2.23981 95.81 2.21008Z" fill="#79C8FF"/>
</g>
<defs>
<clipPath id="clip0_309_2207">
<rect width="97.57" height="131.34" fill="white"/>
</clipPath>
</defs>
</svg>
