<svg width="26" height="21" viewBox="0 0 26 21" fill="none" xmlns="http://www.w3.org/2000/svg">
<g style="mix-blend-mode:luminosity" clip-path="url(#clip0_309_2208)">
<mask id="mask0_309_2208" style="mask-type:luminance" maskUnits="userSpaceOnUse" x="0" y="3" width="7" height="13">
<path d="M5.16003 9.06982L6.75 15.9199C6.66521 15.5847 6.52308 15.2668 6.32996 14.98C4.83996 12.69 2.01 11.5699 1.63 9.92993L0.0500488 3.08984C0.430049 4.71984 3.26 5.84989 4.75 8.13989C4.93857 8.42432 5.07726 8.73876 5.16003 9.06982Z" fill="white"/>
</mask>
<g mask="url(#mask0_309_2208)">
<path d="M5.16003 9.0699L6.75 15.92C6.66521 15.5848 6.52308 15.2668 6.32996 14.9801C4.83996 12.6901 2.01 11.57 1.63 9.93001L0.0500488 3.08992C0.430049 4.71992 3.26 5.84997 4.75 8.13997C4.94312 8.42676 5.08526 8.74472 5.17004 9.07991" fill="#4199D6"/>
</g>
<mask id="mask1_309_2208" style="mask-type:luminance" maskUnits="userSpaceOnUse" x="5" y="3" width="21" height="18">
<path d="M23.55 3.7998L25.13 10.6499C25.63 12.7699 25.22 15.15 25.84 17.95C26.46 20.75 23.46 21.2899 20.23 20.6799C19.8 20.5999 19.3599 20.4999 18.9399 20.3799C17.9399 20.0799 17.08 19.89 16.36 19.75C14.54 19.41 13.19 19.38 9.62 18.75C7.38 18.33 6.79995 18.0198 6.69995 17.5898L5.12 10.75C5.22 11.18 5.80004 11.4899 8.04004 11.9099C11.61 12.5799 12.96 12.6099 14.78 12.9099C15.5 13.0499 16.31 13.24 17.36 13.54C17.78 13.66 18.22 13.7598 18.65 13.8398C21.88 14.4498 24.85 13.8399 24.26 11.1099C23.67 8.37986 24.04 5.9198 23.55 3.7998Z" fill="white"/>
</mask>
<g mask="url(#mask1_309_2208)">
<path d="M23.55 3.79988L25.13 10.65C25.1772 10.8243 25.2139 11.0013 25.24 11.18L23.66 4.33992C23.633 4.15809 23.5963 3.9778 23.55 3.79988Z" fill="#4199D6"/>
<path d="M23.66 4.33992L25.24 11.18C25.31 11.61 25.35 12.0601 25.38 12.5101L23.8 5.67C23.8 5.22 23.73 4.76992 23.66 4.33992Z" fill="#4199D6"/>
<path d="M23.8 5.67L25.38 12.5101C25.38 13.4001 25.38 14.3399 25.49 15.3299L23.91 8.49007C23.85 7.49007 23.85 6.56 23.8 5.67Z" fill="#4199D6"/>
<path d="M23.91 8.49007L25.49 15.3299C25.49 15.9299 25.5899 16.55 25.6899 17.19L24.11 10.3499C24.01 9.70993 23.95 9.09007 23.91 8.49007Z" fill="#4199D6"/>
<path d="M24.11 10.3499L25.6899 17.19C25.6899 17.44 25.78 17.69 25.84 17.95V18.13L24.26 11.2901V11.1099C24.2 10.8499 24.15 10.5999 24.11 10.3499Z" fill="#4199D6"/>
<path d="M24.29 11.2901L25.87 18.13C25.87 18.24 25.87 18.34 25.87 18.44L24.29 11.5999C24.29 11.4999 24.29 11.3901 24.29 11.2901Z" fill="#4199D6"/>
<path d="M24.33 11.5999L25.91 18.44V18.71L24.33 11.8699V11.5999Z" fill="#4199D6"/>
<path d="M24.33 11.92L25.91 18.7601C25.9205 18.8431 25.9205 18.9271 25.91 19.0101L24.33 12.17C24.3404 12.087 24.3404 12.003 24.33 11.92Z" fill="#4199D6"/>
<path d="M24.3 12.1199L25.88 18.96C25.8683 19.041 25.8515 19.1211 25.83 19.2L24.25 12.3599C24.2548 12.28 24.2548 12.1999 24.25 12.1199" fill="#4199D6"/>
<path d="M24.25 12.3599L25.83 19.2C25.8106 19.2868 25.7804 19.3708 25.74 19.45L24.16 12.6099C24.2004 12.5307 24.2306 12.4467 24.25 12.3599Z" fill="#4199D6"/>
<path d="M24.16 12.6099L25.74 19.45C25.6036 19.7477 25.3937 20.0058 25.13 20.2L23.55 13.3499C23.8133 13.1595 24.0233 12.9047 24.16 12.6099Z" fill="#4199D6"/>
<path d="M23.55 13.3499L25.13 20.2L24.9301 20.3299L23.35 13.4901L23.55 13.3499Z" fill="#4199D6"/>
<path d="M23.35 13.4901L24.9301 20.3299L24.74 20.43L23.16 13.5899L23.35 13.4901Z" fill="#4199D6"/>
<path d="M23.16 13.5899L24.74 20.43L24.5699 20.5201L22.99 13.67L23.16 13.5899Z" fill="#4199D6"/>
<path d="M22.99 13.67L24.5699 20.5201L24.38 20.5899L22.8 13.7501L22.99 13.67Z" fill="#4199D6"/>
<path d="M22.8 13.7501L24.38 20.5899L24.1801 20.66L22.6 13.8099L22.8 13.7501Z" fill="#4199D6"/>
<path d="M22.6 13.8099L24.1801 20.66L23.96 20.72L22.38 13.88L22.6 13.8099Z" fill="#4199D6"/>
<path d="M22.38 13.92L23.96 20.7601H23.71L22.13 13.92L22.38 13.8699" fill="#4199D6"/>
<path d="M22.13 13.92L23.71 20.7601L23.41 20.8099L21.83 13.97H22.13" fill="#4199D6"/>
<path d="M21.83 13.9801L23.41 20.8199H23.05L21.47 13.97H21.83" fill="#4199D6"/>
<path d="M21.47 14.0201L23.05 20.8699H22.58L21 14.0301C21.1565 14.0404 21.3135 14.0404 21.47 14.0301" fill="#4199D6"/>
<path d="M21 14.0499L22.58 20.89C22.3666 20.89 22.1467 20.89 21.92 20.89L20.34 14.0401C20.57 14.0401 20.79 14.0401 21 14.0401" fill="#4199D6"/>
<path d="M20.34 14.0401L21.92 20.89C21.59 20.89 21.24 20.8901 20.92 20.7901L19.34 13.95C19.6714 13.9979 20.0053 14.028 20.34 14.0401Z" fill="#4199D6"/>
<path d="M19.3101 13.92L20.89 20.7601C20.67 20.7601 20.45 20.7 20.23 20.65C19.8 20.57 19.3599 20.4699 18.9399 20.3499C17.9399 20.0499 17.08 19.86 16.36 19.72C15.82 19.62 15.36 19.5501 14.79 19.4801L13.21 12.63C13.74 12.7 14.21 12.78 14.78 12.88C15.5 13.02 16.31 13.2101 17.36 13.5101C17.78 13.6301 18.22 13.7299 18.65 13.8099L19.3101 13.92Z" fill="#4199D6"/>
<path d="M13.21 12.66L14.79 19.5101L13.35 19.3199L11.77 12.47C12.3 12.55 12.77 12.6 13.21 12.66Z" fill="#4199D6"/>
<path d="M11.75 12.47L13.33 19.3199C12.38 19.1899 11.21 19.02 9.59998 18.71C7.35998 18.29 6.78005 17.9799 6.68005 17.5499L5.09998 10.71C5.19998 11.14 5.78002 11.4499 8.02002 11.8699C9.63002 12.1699 10.8 12.35 11.75 12.47Z" fill="#4199D6"/>
</g>
<path d="M16.89 0.180108C18.89 0.550108 22.83 1.50011 23.39 3.18011C24.13 5.45011 23.58 8.01001 24.26 11.08C24.85 13.78 21.88 14.42 18.65 13.81C18.22 13.73 17.78 13.6302 17.36 13.5102C16.36 13.2102 15.5 13.0201 14.78 12.8801C12.96 12.5401 11.61 12.5101 8.04001 11.8801C3.04001 10.9301 6.30997 10.5701 4.73996 8.14007C3.16996 5.71007 0.0799747 4.59998 -2.53149e-05 2.79998C-0.0800253 0.999981 4.32996 1.80005 7.23996 2.12005C10.15 2.44005 13.63 0.220186 15.8 0.0101857C15.82 0.00018575 16.23 0.0601076 16.89 0.180108Z" fill="#79C8FF"/>
</g>
<defs>
<clipPath id="clip0_309_2208">
<rect width="25.91" height="20.9" fill="white"/>
</clipPath>
</defs>
</svg>
