<svg width="189" height="47" viewBox="0 0 189 47" fill="none" xmlns="http://www.w3.org/2000/svg">
<path d="M181.57 12.23C177.12 9.48003 175.33 6.36003 174.77 2.92003C174.63 2.10152 174.205 1.359 173.57 0.824385C172.935 0.28977 172.13 -0.00233727 171.3 1.40856e-05H16.89C16.0609 -0.00197349 15.2579 0.290481 14.6243 0.82524C13.9906 1.36 13.5674 2.10234 13.43 2.92003C12.86 6.36003 11.07 9.48003 6.62 12.23C1.96 15.11 0 17.23 0 23.28C0 29.33 2 31.46 6.62 34.34C11.07 37.09 12.86 40.2 13.43 43.65C13.5695 44.4659 13.9937 45.2059 14.6271 45.7386C15.2606 46.2714 16.0623 46.5624 16.89 46.56H171.3C172.129 46.5628 172.932 46.2721 173.567 45.7395C174.202 45.2069 174.628 44.4667 174.77 43.65C175.33 40.2 177.12 37.09 181.57 34.34C186.23 31.46 188.2 29.39 188.2 23.28C188.2 17.17 186.2 15.11 181.57 12.23Z" fill="#E2542A"/>
<path d="M165.78 4.04993H22.41C21.1139 4.05257 19.8717 4.5686 18.9552 5.48508C18.0387 6.40156 17.5227 7.64381 17.52 8.93991V37.6299C17.5227 38.926 18.0387 40.1683 18.9552 41.0847C19.8717 42.0012 21.1139 42.5173 22.41 42.5199H165.78C167.076 42.5173 168.318 42.0012 169.235 41.0847C170.151 40.1683 170.667 38.926 170.67 37.6299V8.94992C170.671 8.30692 170.546 7.66997 170.301 7.07553C170.055 6.48109 169.696 5.94083 169.241 5.48569C168.787 5.03055 168.248 4.66947 167.654 4.4231C167.06 4.17673 166.423 4.04993 165.78 4.04993Z" fill="white"/>
<path d="M165.78 41.21H22.4099C21.9397 41.21 21.4741 41.1174 21.0398 40.9375C20.6054 40.7576 20.2108 40.4939 19.8784 40.1614C19.5459 39.829 19.2823 39.4343 19.1024 39C18.9224 38.5657 18.8298 38.1001 18.8298 37.63V8.94998C18.8298 7.99958 19.2067 7.08798 19.8778 6.41501C20.5489 5.74204 21.4595 5.36263 22.4099 5.35999H165.78C166.732 5.35999 167.645 5.73821 168.318 6.41147C168.992 7.08472 169.37 7.99785 169.37 8.94998V37.64C169.368 38.1101 169.275 38.5754 169.094 39.0092C168.912 39.4431 168.648 39.837 168.314 40.1685C167.981 40.5 167.585 40.7626 167.151 40.9413C166.716 41.12 166.25 41.2113 165.78 41.21Z" fill="#F6AB00"/>
<path d="M178.48 27.1499C180.617 27.1499 182.35 25.4172 182.35 23.2799C182.35 21.1426 180.617 19.4099 178.48 19.4099C176.343 19.4099 174.61 21.1426 174.61 23.2799C174.61 25.4172 176.343 27.1499 178.48 27.1499Z" fill="#003F78"/>
<path d="M9.87 27.1499C12.0073 27.1499 13.74 25.4172 13.74 23.2799C13.74 21.1426 12.0073 19.4099 9.87 19.4099C7.73265 19.4099 6 21.1426 6 23.2799C6 25.4172 7.73265 27.1499 9.87 27.1499Z" fill="#003F78"/>
<path d="M166.21 7.08997H22.85C21.8282 7.08997 21 7.91821 21 8.93994V37.6299C21 38.6517 21.8282 39.4799 22.85 39.4799H166.21C167.232 39.4799 168.06 38.6517 168.06 37.6299V8.93994C168.06 7.91821 167.232 7.08997 166.21 7.08997Z" fill="white"/>
<path d="M41.718 32.4439C41.586 32.2279 41.364 31.9399 41.052 31.5799C40.752 31.2319 40.494 30.9559 40.278 30.7519C40.53 30.6079 40.8 30.4339 41.088 30.2299H39.162V31.2199H37.2V23.5159H42.276V29.2399C42.732 28.7599 43.062 28.3879 43.266 28.1239C43.038 26.7079 42.876 24.9619 42.78 22.8859H36.696V20.8879H37.56C37.524 20.2519 37.416 19.6099 37.236 18.9619L38.136 18.7459H36.966V18.2059H36.354V32.3899H34.194V29.4919C33.702 29.5999 32.982 29.7499 32.034 29.9419C31.458 30.0499 31.038 30.1339 30.774 30.1939L30.342 27.8179C30.486 27.8059 30.72 27.7759 31.044 27.7279C31.188 27.7039 31.296 27.6859 31.368 27.6739V18.2059H30.72V15.9199H37.056V16.8739H38.622V15.3619H40.836V16.8739H42.402V18.7459H41.232L42.24 18.9259C42.072 19.4059 41.85 20.0599 41.574 20.8879H42.69C42.654 19.7119 42.624 17.8459 42.6 15.2899H44.886L44.868 16.6939L46.002 16.0999C46.77 17.0479 47.334 17.9959 47.694 18.9439L45.912 19.9519C45.696 19.3279 45.348 18.6199 44.868 17.8279C44.868 18.5719 44.88 19.5919 44.904 20.8879H47.568V22.8859H44.976C44.988 23.3899 45.018 24.0259 45.066 24.7939C45.234 24.3619 45.384 23.8999 45.516 23.4079L47.586 23.8579C47.226 25.1179 46.758 26.2879 46.182 27.3679C46.53 27.8359 47.076 28.3159 47.82 28.8079C47.592 30.1519 47.256 31.1239 46.812 31.7239C46.476 32.1679 46.104 32.3899 45.696 32.3899C44.928 32.3779 44.322 31.7839 43.878 30.6079C43.218 31.3159 42.498 31.9279 41.718 32.4439ZM45.822 29.3659C45.99 29.3659 46.104 28.7179 46.164 27.4219C46.02 27.6859 45.792 28.0699 45.48 28.5739C45.588 29.1019 45.702 29.3659 45.822 29.3659ZM39.162 28.4839H40.278V27.7099H39.162V28.4839ZM33.474 27.3499L34.194 27.2239V25.5499H33.474V27.3499ZM39.162 26.0539H40.278V25.2799H39.162V26.0539ZM33.474 23.4619H34.194V21.8959H33.474V23.4619ZM38.64 20.8879H40.674L39.918 20.7259C40.098 19.9219 40.224 19.2619 40.296 18.7459H38.928C39.144 19.3939 39.264 20.0539 39.288 20.7259L38.64 20.8879ZM33.474 19.8079H34.194V18.2059H33.474V19.8079ZM50.502 32.2459C49.986 31.4899 49.242 30.7879 48.27 30.1399C50.262 28.9879 51.822 27.4459 52.95 25.5139C53.826 24.0259 54.438 22.3159 54.786 20.3839C54.978 19.3039 55.098 17.9539 55.146 16.3339C55.146 16.0099 55.152 15.7819 55.164 15.6499H58.188C58.176 15.9859 58.158 16.3819 58.134 16.8379C58.266 19.1539 58.728 21.2719 59.52 23.1919C60.84 26.3599 62.94 28.6279 65.82 29.9959C64.932 30.6559 64.26 31.3999 63.804 32.2279C60.552 30.5719 58.242 27.7579 56.874 23.7859C55.626 27.4699 53.502 30.2899 50.502 32.2459ZM82.02 32.3899C80.712 31.7179 79.608 30.8419 78.708 29.7619C77.724 30.7819 76.488 31.6459 75 32.3539C74.82 31.8979 74.496 31.3279 74.028 30.6439H69.582V31.5979H67.17V23.4079H69.474V20.9239H66.45V18.4939H69.474V15.2899H72.102V18.4939H74.892V20.4199C75.54 19.0039 76.008 17.2879 76.296 15.2719L78.96 15.6859C78.792 16.6699 78.594 17.5879 78.366 18.4399H83.55V20.9059H82.506C82.062 23.6059 81.354 25.8079 80.382 27.5119C81.306 28.6639 82.446 29.5339 83.802 30.1219C83.514 30.3619 83.19 30.7159 82.83 31.1839C82.482 31.6279 82.212 32.0299 82.02 32.3899ZM74.37 29.6899C75.498 29.1379 76.458 28.4179 77.25 27.5299C76.734 26.5339 76.29 25.3819 75.918 24.0739C75.678 24.3859 75.498 24.6139 75.378 24.7579C75.126 24.4939 74.79 24.1939 74.37 23.8579V29.6899ZM69.582 28.2139H71.886V25.8379H69.582V28.2139ZM78.834 24.9559C79.326 23.8279 79.68 22.4779 79.896 20.9059H77.61C77.91 22.4419 78.318 23.7919 78.834 24.9559ZM72.102 23.4079H73.794C73.554 23.2279 73.362 23.0899 73.218 22.9939C73.77 22.4179 74.244 21.7279 74.64 20.9239H72.102V23.4079ZM89.904 32.4439C89.76 31.7839 89.478 31.1119 89.058 30.4279C89.55 30.4519 90.246 30.4639 91.146 30.4639C91.314 30.4519 91.428 30.4159 91.488 30.3559C91.56 30.2959 91.596 30.1879 91.596 30.0319V29.8159H86.322V27.9619H91.596V27.4219H84.576V25.4599H91.596V24.9739H86.448V23.2459H91.596V22.7059H86.844V18.8899H91.596V18.3499H85.026V16.3159H91.596V15.2899H94.26V16.3159H100.992V18.3499H94.26V18.8899H99.228V22.7059H94.26V23.2459H99.552V25.4599H101.442V27.4219H99.552V30.5539H96.888V29.8159H94.26V30.0319C94.26 30.6199 94.182 31.0639 94.026 31.3639C93.87 31.6639 93.6 31.9039 93.216 32.0839C92.856 32.2399 92.4 32.3419 91.848 32.3899C91.428 32.4259 90.78 32.4439 89.904 32.4439ZM94.26 27.9619H96.888V27.4219H94.26V27.9619ZM94.26 25.4599H96.888V24.9739H94.26V25.4599ZM89.346 21.1039H91.596V20.4919H89.346V21.1039ZM94.26 21.1039H96.546V20.4919H94.26V21.1039ZM104.232 32.4799C103.62 31.9639 102.942 31.5079 102.198 31.1119C103.11 30.2719 103.776 29.1619 104.196 27.7819L106.572 28.3579L106.536 28.4839L108.156 27.7819H103.368V15.9919H109.434V27.7819H108.372C108.828 28.3819 109.236 29.0239 109.596 29.7079C109.968 28.8079 110.22 27.7219 110.352 26.4499C110.448 25.5859 110.496 24.4999 110.496 23.1919V16.2439H119.028V18.6019H112.89V20.6899H117.066L117.498 20.6359L119.028 20.9599C118.764 23.9839 118.122 26.4319 117.102 28.3039C117.918 29.1919 118.818 29.8759 119.802 30.3559C119.526 30.5839 119.22 30.9019 118.884 31.3099C118.548 31.7299 118.29 32.1079 118.11 32.4439C117.174 31.8919 116.34 31.2079 115.608 30.3919C114.876 31.1839 114.036 31.8319 113.088 32.3359C112.728 31.6519 112.332 31.0459 111.9 30.5179C111.636 31.2619 111.3 31.9099 110.892 32.4619C110.664 32.2579 110.328 32.0119 109.884 31.7239C109.452 31.4479 109.092 31.2499 108.804 31.1299C109.02 30.8179 109.17 30.5779 109.254 30.4099L107.706 31.1479C107.478 30.4999 107.052 29.7019 106.428 28.7539C105.84 30.3139 105.108 31.5559 104.232 32.4799ZM112.098 29.9419C112.866 29.5219 113.538 28.9639 114.114 28.2679C113.646 27.4519 113.22 26.4859 112.836 25.3699C112.728 27.1939 112.482 28.7179 112.098 29.9419ZM115.5 25.9279C115.872 25.0639 116.16 24.0739 116.364 22.9579H114.348C114.672 24.0739 115.056 25.0639 115.5 25.9279ZM105.672 25.7299H107.022V24.4159H105.672V25.7299ZM105.672 22.5259H107.022V21.2299H105.672V22.5259ZM105.672 19.3219H107.022V18.0439H105.672V19.3219ZM134.436 32.4799C133.392 31.9999 131.826 31.4899 129.738 30.9499L131.592 29.9779H126.624L128.244 30.7339C126.756 31.4179 124.788 31.9819 122.34 32.4259C121.668 31.6459 121.056 31.0579 120.504 30.6619C122.316 30.4939 123.822 30.2659 125.022 29.9779H123.006V23.6779H135.264V29.9779H132.762C134.814 30.5179 136.416 30.9799 137.568 31.3639L134.436 32.4799ZM125.544 28.6819H132.6V28.2499H125.544V28.6819ZM125.544 27.0259H132.6V26.6119H125.544V27.0259ZM125.544 25.3879H132.6V24.9919H125.544V25.3879ZM121.962 23.2819V19.9879H136.11V23.2819H121.962ZM124.266 21.9139H125.994V21.3559H124.266V21.9139ZM128.046 21.9139H129.81V21.3559H128.046V21.9139ZM131.862 21.9139H133.68V21.3559H131.862V21.9139ZM122.502 19.6279V18.1519H127.65V17.7739H121.116V16.1179H127.65V15.2899H130.242V16.1179H136.92V17.7739H130.242V18.1519H135.714V19.6279H122.502ZM151.572 32.4079V23.8939H150.024C149.76 27.6619 148.656 30.4879 146.712 32.3719C146.544 32.0959 146.256 31.7719 145.848 31.3999C145.44 31.0279 145.086 30.7639 144.786 30.6079C145.902 29.5039 146.676 28.0759 147.108 26.3239C147.396 25.1359 147.54 23.6659 147.54 21.9139V16.8019L149.25 17.1979C150.93 16.6699 152.28 16.0879 153.3 15.4519L155.586 17.4139C154.074 18.1579 152.244 18.7999 150.096 19.3399V21.3739H155.568V23.8939H154.164V32.4079H151.572ZM140.268 32.1919C140.076 31.9039 139.764 31.5739 139.332 31.2019C138.9 30.8419 138.528 30.5899 138.216 30.4459C138.708 29.4499 139.044 28.1779 139.224 26.6299C139.344 25.6099 139.404 24.3199 139.404 22.7599V16.7299L140.664 17.0719C142.44 16.6519 143.88 16.1479 144.984 15.5599L147.054 17.5399C145.674 18.1279 143.976 18.6259 141.96 19.0339V19.7539H146.82V26.1439H141.816C141.588 28.7239 141.072 30.7399 140.268 32.1919ZM141.942 23.8219H144.3V22.0759H141.96V22.8139C141.96 23.2459 141.954 23.5819 141.942 23.8219Z" fill="#3E3A39"/>
</svg>
