<svg width="136" height="47" viewBox="0 0 136 47" fill="none" xmlns="http://www.w3.org/2000/svg">
<path d="M128.57 12.23C124.12 9.48003 122.33 6.36003 121.77 2.92003C121.63 2.10152 121.205 1.359 120.57 0.824385C119.935 0.28977 119.13 -0.00233727 118.3 1.40856e-05H16.8899C16.0607 -0.00197349 15.2579 0.290481 14.6243 0.82524C13.9906 1.36 13.5673 2.10234 13.4299 2.92003C12.8599 6.36003 11.07 9.48003 6.62 12.23C1.96 15.11 0 17.23 0 23.28C0 29.33 2 31.46 6.62 34.34C11.07 37.09 12.8599 40.2 13.4299 43.65C13.5695 44.4659 13.9936 45.2059 14.6271 45.7386C15.2605 46.2714 16.0622 46.5624 16.8899 46.56H118.3C119.129 46.5628 119.932 46.2721 120.567 45.7395C121.202 45.2069 121.628 44.4667 121.77 43.65C122.33 40.2 124.12 37.09 128.57 34.34C133.23 31.46 135.2 29.39 135.2 23.28C135.2 17.17 133.2 15.11 128.57 12.23Z" fill="#E2542A"/>
<path d="M111.78 4.0498H22.4099C21.1138 4.05245 19.8716 4.56847 18.9551 5.48495C18.0386 6.40144 17.5225 7.64369 17.5199 8.93979V37.6298C17.5225 38.9259 18.0386 40.1681 18.9551 41.0846C19.8716 42.0011 21.1138 42.5172 22.4099 42.5198H111.78C113.076 42.5172 114.318 42.0011 115.235 41.0846C116.151 40.1681 116.667 38.9259 116.67 37.6298V8.9498C116.671 8.30679 116.546 7.66985 116.301 7.07541C116.055 6.48097 115.695 5.9407 115.241 5.48557C114.787 5.03043 114.247 4.66934 113.654 4.42297C113.06 4.1766 112.423 4.0498 111.78 4.0498Z" fill="white"/>
<path d="M111.78 41.2099H22.4099C21.4604 41.2099 20.5499 40.8327 19.8785 40.1613C19.2072 39.4899 18.83 38.5793 18.83 37.6299V8.94986C18.83 7.99946 19.2068 7.08786 19.8779 6.41489C20.549 5.74192 21.4595 5.36251 22.4099 5.35986H111.78C112.732 5.35986 113.645 5.73809 114.318 6.41135C114.992 7.0846 115.37 7.99773 115.37 8.94986V37.6399C115.369 38.11 115.275 38.5752 115.094 39.0091C114.913 39.4429 114.648 39.8369 114.314 40.1684C113.981 40.4999 113.586 40.7625 113.151 40.9412C112.716 41.1199 112.25 41.2112 111.78 41.2099Z" fill="#F6AB00"/>
<path d="M125.87 27.1499C128.007 27.1499 129.74 25.4172 129.74 23.2799C129.74 21.1426 128.007 19.4099 125.87 19.4099C123.733 19.4099 122 21.1426 122 23.2799C122 25.4172 123.733 27.1499 125.87 27.1499Z" fill="#003F78"/>
<path d="M9.87 27.1499C12.0073 27.1499 13.74 25.4172 13.74 23.2799C13.74 21.1426 12.0073 19.4099 9.87 19.4099C7.73265 19.4099 6 21.1426 6 23.2799C6 25.4172 7.73265 27.1499 9.87 27.1499Z" fill="#003F78"/>
<path d="M111.5 7.08984H22.85C21.8282 7.08984 21 7.91809 21 8.93982V37.6298C21 38.6515 21.8282 39.4798 22.85 39.4798H111.5C112.522 39.4798 113.35 38.6515 113.35 37.6298V8.93982C113.35 7.91809 112.522 7.08984 111.5 7.08984Z" fill="white"/>
<path d="M32.844 32.3719V26.5039C32.424 26.8759 31.98 27.2119 31.512 27.5119C31.188 26.6479 30.774 25.7959 30.27 24.9559C31.962 23.8879 33.396 22.2799 34.572 20.1319H30.918V17.6299H35.724C35.988 16.9459 36.234 16.1599 36.462 15.2719L39.198 15.9199C39.102 16.2199 38.952 16.6699 38.748 17.2699C38.688 17.4259 38.646 17.5459 38.622 17.6299H47.136V20.1319H37.56C36.948 21.4279 36.258 22.5979 35.49 23.6419V32.3719H32.844ZM36.264 31.9219V29.5099H40.404V25.9459H36.948V23.5339H40.404V20.8159H43.05V23.5339H46.362V25.9459H43.05V29.5099H47.046V31.9219H36.264ZM59.448 32.0659C58.104 32.0659 57.198 31.8199 56.73 31.3279C56.262 30.8479 56.028 29.9119 56.028 28.5199V24.4159L55.308 24.7399L54.336 22.4359L56.028 21.7159V17.0719H58.512V20.6539L59.484 20.2399V15.2899H61.932V19.1779L62.832 18.7999H62.814L63.228 18.5299L63.696 18.2239L65.514 18.8719L65.424 19.2859C65.424 22.5139 65.394 24.5479 65.334 25.3879C65.298 26.2159 64.998 26.7739 64.434 27.0619C64.038 27.2779 63.378 27.3859 62.454 27.3859C62.346 26.4739 62.172 25.7659 61.932 25.2619V28.0879H59.484V22.9039L58.512 23.3359V28.5199C58.512 29.0719 58.578 29.4139 58.71 29.5459C58.842 29.6779 59.172 29.7439 59.7 29.7439H62.724C63.192 29.7439 63.498 29.6179 63.642 29.3659C63.798 29.1019 63.918 28.5319 64.002 27.6559C64.278 27.8479 64.638 28.0339 65.082 28.2139C65.526 28.3939 65.922 28.5199 66.27 28.5919C66.114 29.8999 65.808 30.8059 65.352 31.3099C64.872 31.8139 64.08 32.0659 62.976 32.0659H59.448ZM49.836 30.0319L48.792 27.4039C49.08 27.3079 49.572 27.1279 50.268 26.8639C50.616 26.7319 50.88 26.6299 51.06 26.5579V21.8419H49.08V19.3759H51.06V15.5599H53.49V19.3759H55.164V21.8419H53.49V25.5499L54.948 24.9379L55.542 27.2419C53.778 28.1539 51.876 29.0839 49.836 30.0319ZM62.598 25.2439C62.778 25.2439 62.88 25.1359 62.904 24.9199C62.928 24.7759 62.94 23.5999 62.94 21.3919L61.932 21.8419V25.2259C62.088 25.2379 62.31 25.2439 62.598 25.2439ZM77.196 32.4439C76.956 31.8319 76.542 31.1539 75.954 30.4099C75.93 30.8299 75.864 31.1599 75.756 31.3999C75.636 31.6639 75.438 31.8739 75.162 32.0299C74.694 32.2819 73.884 32.4079 72.732 32.4079C72.648 31.7239 72.426 31.0159 72.066 30.2839C72.582 30.3199 72.99 30.3259 73.29 30.3019C73.458 30.3019 73.542 30.2239 73.542 30.0679V29.7439H70.986V32.3899H68.592V23.2459H75.864C76.008 23.0299 76.128 22.8199 76.224 22.6159H67.566V20.4559H69.33V19.2859H67.818V17.1619H69.33V15.5419H71.688V17.1619H72.84V15.5419H75.234V17.1619H76.746V19.2859H75.234V20.4559H76.566V21.8599C77.226 20.2519 77.682 18.0559 77.934 15.2719L80.49 15.6319C80.346 16.7599 80.196 17.7319 80.04 18.5479H84.63V20.9599H83.496C83.172 23.5879 82.626 25.7299 81.858 27.3859C82.662 28.5859 83.652 29.4979 84.828 30.1219C84.54 30.3739 84.21 30.7279 83.838 31.1839C83.49 31.6279 83.214 32.0359 83.01 32.4079C82.002 31.7599 81.12 30.8959 80.364 29.8159C79.548 30.8479 78.492 31.7239 77.196 32.4439ZM75.954 30.0499C77.226 29.3899 78.252 28.4719 79.032 27.2959C78.672 26.3839 78.372 25.4599 78.132 24.5239C77.916 24.9679 77.652 25.3999 77.34 25.8199C77.028 25.2079 76.566 24.5119 75.954 23.7319V30.0499ZM70.986 27.8719H73.542V27.4219H70.986V27.8719ZM70.986 25.6039H73.542V25.1719H70.986V25.6039ZM80.346 24.2359C80.622 23.2159 80.814 22.1239 80.922 20.9599H79.536C79.74 22.1239 80.01 23.2159 80.346 24.2359ZM71.688 20.4559H72.84V19.2859H71.688V20.4559ZM93.468 32.3899V29.2219C91.908 30.4939 90.042 31.4059 87.87 31.9579C87.702 31.6339 87.456 31.2499 87.132 30.8059C86.808 30.3739 86.514 30.0259 86.25 29.7619C87.762 29.4979 89.148 29.0779 90.408 28.5019C91.692 27.9139 92.712 27.2239 93.468 26.4319V25.3159H90.57V28.3219H87.78V23.1199H93.468V22.5439H86.7V20.3119H88.05C87.426 19.8199 86.736 19.3699 85.98 18.9619C86.544 18.5059 87.072 17.9299 87.564 17.2339C88.044 16.5499 88.428 15.8479 88.716 15.1279L91.218 15.8119C91.134 16.0279 91.008 16.2919 90.84 16.6039H94.386V18.2059C95.166 17.3059 95.748 16.2799 96.132 15.1279L98.688 15.7579C98.58 16.0579 98.466 16.3399 98.346 16.6039H102.936V18.7639H100.434C100.686 19.1959 100.86 19.5319 100.956 19.7719L99.264 20.3119H102.594V22.5439H96.294V23.1199H101.748V26.0359C101.748 26.5759 101.682 26.9839 101.55 27.2599C101.406 27.5599 101.154 27.7819 100.794 27.9259C100.326 28.1179 99.672 28.2259 98.832 28.2499C100.236 28.8499 101.724 29.2699 103.296 29.5099C103.032 29.7859 102.732 30.1519 102.396 30.6079C102.072 31.0639 101.82 31.4659 101.64 31.8139C99.732 31.3579 97.95 30.5119 96.294 29.2759V32.3899H93.468ZM97.986 27.8359C97.806 27.3439 97.566 26.8159 97.266 26.2519C97.554 26.2879 98.004 26.2999 98.616 26.2879C98.676 26.2879 98.718 26.2879 98.742 26.2879C98.946 26.2879 99.048 26.2039 99.048 26.0359V25.3159H96.294V26.7739C96.762 27.1459 97.326 27.4999 97.986 27.8359ZM88.248 20.3119H90.372C90.144 19.7719 89.88 19.2559 89.58 18.7639H89.544C89.04 19.4359 88.608 19.9519 88.248 20.3119ZM91.434 20.3119H93.468V19.4299H94.404C94.26 19.3339 94.05 19.2079 93.774 19.0519C93.702 19.0159 93.648 18.9859 93.612 18.9619C93.636 18.9379 93.672 18.9079 93.72 18.8719C93.78 18.8239 93.822 18.7879 93.846 18.7639H92.226C92.49 19.2319 92.664 19.5799 92.748 19.8079L91.434 20.3119ZM96.294 20.3119H98.562C98.43 19.9759 98.166 19.4599 97.77 18.7639H97.176C96.9 19.1719 96.606 19.5619 96.294 19.9339V20.3119Z" fill="#3E3A39"/>
</svg>
