<svg cache-id="7a3c0638cd444e099e31aa0166334462" id="etcioqde0TO1" xmlns="http://www.w3.org/2000/svg" xmlns:xlink="http://www.w3.org/1999/xlink" viewBox="0 0 300 300" shape-rendering="geometricPrecision" text-rendering="geometricPrecision" width="300" height="300">
<style><![CDATA[
#etcioqde0TO4_to {animation: etcioqde0TO4_to__to 2393.44262295082ms linear infinite normal forwards}@keyframes etcioqde0TO4_to__to { 0% {transform: translate(34px,146.389934px)} 100% {transform: translate(102.699538px,146.389934px)}}
]]></style>
<g opacity="0.7" mask="url(#etcioqde0TO10)"><g mask="url(#etcioqde0TO8)"><g id="etcioqde0TO4_to" transform="translate(34,146.389934)"><g transform="translate(-42.777008,-137.457687)"><path d="M2.99997,23C20.7904,23,20.7954,3,38.5858,3C56.3763,3,56.3812,23,74.1717,23s17.7954-20,35.5863-20c17.79,0,17.795,20,35.585,20c17.791,0,17.796-20,35.586-20c17.791,0,17.796,20,35.591,20" transform="translate(147.43907 124.457688)" fill="none" stroke="#69b7ff" stroke-width="5" stroke-linecap="round" stroke-linejoin="round"/><path d="M2.99997,23C20.7904,23,20.7954,3,38.5858,3C56.3763,3,56.3812,23,74.1717,23s17.7954-20,35.5863-20c17.79,0,17.795,20,35.585,20c17.791,0,17.796-20,35.586-20c17.791,0,17.796,20,35.591,20" transform="translate(-281.405025 124.457687)" fill="none" stroke="#69b7ff" stroke-width="5" stroke-linecap="round" stroke-linejoin="round"/><path d="M2.99997,23C20.7904,23,20.7954,3,38.5858,3C56.3763,3,56.3812,23,74.1717,23s17.7954-20,35.5863-20c17.79,0,17.795,20,35.585,20c17.791,0,17.796-20,35.586-20c17.791,0,17.796,20,35.591,20" transform="translate(-66.95904 124.457687)" fill="none" stroke="#69b7ff" stroke-width="5" stroke-linecap="round" stroke-linejoin="round"/></g></g><mask id="etcioqde0TO8" mask-type="luminance" x="-150%" y="-150%" height="400%" width="400%"><rect width="237.121543" height="126.335248" rx="0" ry="0" transform="translate(31.439228 83.22231)" fill="#69b7ff" stroke-width="0"/></mask></g><mask id="etcioqde0TO10" mask-type="luminance" x="-150%" y="-150%" height="400%" width="400%"><rect width="196.533994" height="73.128928" rx="0" ry="0" transform="translate(33.450771 115.977909)" fill="#d2dbed" stroke-width="0"/></mask></g></svg>
